%TF.GenerationSoftware,KiCad,Pcbnew,8.0.3*%
%TF.CreationDate,2024-09-02T13:54:09+02:00*%
%TF.ProjectId,uberamp1,75626572-616d-4703-912e-6b696361645f,rev?*%
%TF.SameCoordinates,Original*%
%TF.FileFunction,Soldermask,Bot*%
%TF.FilePolarity,Negative*%
%FSLAX46Y46*%
G04 Gerber Fmt 4.6, Leading zero omitted, Abs format (unit mm)*
G04 Created by KiCad (PCBNEW 8.0.3) date 2024-09-02 13:54:09*
%MOMM*%
%LPD*%
G01*
G04 APERTURE LIST*
G04 Aperture macros list*
%AMRoundRect*
0 Rectangle with rounded corners*
0 $1 Rounding radius*
0 $2 $3 $4 $5 $6 $7 $8 $9 X,Y pos of 4 corners*
0 Add a 4 corners polygon primitive as box body*
4,1,4,$2,$3,$4,$5,$6,$7,$8,$9,$2,$3,0*
0 Add four circle primitives for the rounded corners*
1,1,$1+$1,$2,$3*
1,1,$1+$1,$4,$5*
1,1,$1+$1,$6,$7*
1,1,$1+$1,$8,$9*
0 Add four rect primitives between the rounded corners*
20,1,$1+$1,$2,$3,$4,$5,0*
20,1,$1+$1,$4,$5,$6,$7,0*
20,1,$1+$1,$6,$7,$8,$9,0*
20,1,$1+$1,$8,$9,$2,$3,0*%
%AMFreePoly0*
4,1,41,0.405944,0.837532,0.529551,0.817955,0.540859,0.814281,0.652366,0.757465,0.661984,0.750477,0.750477,0.661984,0.757465,0.652366,0.814281,0.540859,0.817955,0.529551,0.837532,0.405944,0.838000,0.400000,0.838000,-0.400000,0.837532,-0.405944,0.817955,-0.529551,0.814281,-0.540859,0.757465,-0.652366,0.750477,-0.661984,0.661984,-0.750477,0.652366,-0.757465,0.540859,-0.814281,
0.529551,-0.817955,0.405944,-0.837532,0.400000,-0.838000,-0.400000,-0.838000,-0.405944,-0.837532,-0.529551,-0.817955,-0.540859,-0.814281,-0.652366,-0.757465,-0.661984,-0.750477,-0.750477,-0.661984,-0.757465,-0.652366,-0.814281,-0.540859,-0.817955,-0.529551,-0.837532,-0.405944,-0.838000,-0.400000,-0.838000,0.480000,-0.826870,0.506870,-0.506870,0.826870,-0.480000,0.838000,0.400000,0.838000,
0.405944,0.837532,0.405944,0.837532,$1*%
G04 Aperture macros list end*
%ADD10C,3.676000*%
%ADD11C,5.676000*%
%ADD12C,4.076000*%
%ADD13C,3.276000*%
%ADD14O,1.676000X3.076000*%
%ADD15C,1.676000*%
%ADD16RoundRect,0.555200X1.182800X-0.832800X1.182800X0.832800X-1.182800X0.832800X-1.182800X-0.832800X0*%
%ADD17FreePoly0,270.000000*%
%ADD18C,3.876000*%
%ADD19O,1.576000X1.276000*%
%ADD20O,0.881000X0.461000*%
%ADD21C,1.876000*%
%ADD22C,1.376000*%
%ADD23RoundRect,0.169000X-0.719000X0.169000X-0.719000X-0.169000X0.719000X-0.169000X0.719000X0.169000X0*%
%ADD24RoundRect,0.269000X-1.169000X0.269000X-1.169000X-0.269000X1.169000X-0.269000X1.169000X0.269000X0*%
%ADD25C,1.576000*%
%ADD26RoundRect,0.169000X0.169000X0.719000X-0.169000X0.719000X-0.169000X-0.719000X0.169000X-0.719000X0*%
%ADD27RoundRect,0.269000X0.269000X1.169000X-0.269000X1.169000X-0.269000X-1.169000X0.269000X-1.169000X0*%
%ADD28O,1.276000X1.576000*%
%ADD29O,2.213656X2.584714*%
%ADD30C,1.476000*%
%ADD31C,1.276000*%
%ADD32O,3.276000X2.476000*%
%ADD33C,1.776000*%
%ADD34RoundRect,0.242400X0.060600X0.185600X-0.060600X0.185600X-0.060600X-0.185600X0.060600X-0.185600X0*%
G04 APERTURE END LIST*
D10*
%TO.C,H3*%
X15080000Y-102960000D03*
D11*
X15080000Y-102960000D03*
%TD*%
D10*
%TO.C,H4*%
X138080000Y-27960000D03*
D11*
X138080000Y-27960000D03*
%TD*%
D10*
%TO.C,H2*%
X138080000Y-102960000D03*
D11*
X138080000Y-102960000D03*
%TD*%
D12*
%TO.C,U26*%
X27360000Y-42300000D03*
%TD*%
D13*
%TO.C,U9*%
X54100000Y-59370000D03*
%TD*%
D14*
%TO.C,U23*%
X23990000Y-53510000D03*
D15*
X23985000Y-54210000D03*
X23985000Y-52820000D03*
%TD*%
D10*
%TO.C,H5*%
X15080000Y-27960000D03*
D11*
X15080000Y-27960000D03*
%TD*%
D13*
%TO.C,U14*%
X54000000Y-74182651D03*
%TD*%
D16*
%TO.C,U18*%
X68760000Y-39670000D03*
%TD*%
%TO.C,U19*%
X60650000Y-40540000D03*
%TD*%
D17*
%TO.C,U29*%
X29040000Y-83570000D03*
%TD*%
D18*
%TO.C,H6*%
X100160000Y-71190000D03*
%TD*%
D19*
%TO.C,s15*%
X29535000Y-66480000D03*
%TD*%
%TO.C,s20*%
X29495000Y-62200000D03*
%TD*%
%TO.C,s38*%
X48550000Y-78222651D03*
%TD*%
D20*
%TO.C,IC1*%
X96265000Y-61170000D03*
X96265000Y-60535000D03*
X96265000Y-59900000D03*
X96265000Y-59265000D03*
X96265000Y-58630000D03*
X96265000Y-57995000D03*
X96265000Y-57360000D03*
X96265000Y-56725000D03*
X96265000Y-56090000D03*
X96265000Y-55455000D03*
X96265000Y-54820000D03*
X96265000Y-54185000D03*
X96265000Y-53550000D03*
X96265000Y-52915000D03*
X96265000Y-52280000D03*
X96265000Y-51645000D03*
X96265000Y-51010000D03*
X96265000Y-50375000D03*
X96265000Y-49740000D03*
X96265000Y-49105000D03*
X96265000Y-48470000D03*
X96265000Y-47835000D03*
X103900000Y-47835000D03*
X103900000Y-48470000D03*
X103900000Y-49105000D03*
X103900000Y-49740000D03*
X103900000Y-50375000D03*
X103900000Y-51010000D03*
X103900000Y-51645000D03*
X103900000Y-52280000D03*
X103900000Y-52915000D03*
X103900000Y-53550000D03*
X103900000Y-54185000D03*
X103900000Y-54820000D03*
X103900000Y-55455000D03*
X103900000Y-56090000D03*
X103900000Y-56725000D03*
X103900000Y-57360000D03*
X103900000Y-57995000D03*
X103900000Y-58630000D03*
X103900000Y-59265000D03*
X103900000Y-59900000D03*
X103900000Y-60535000D03*
X103900000Y-61170000D03*
%TD*%
D19*
%TO.C,s30*%
X93570000Y-49940000D03*
%TD*%
%TO.C,s58*%
X71670000Y-84050000D03*
%TD*%
%TO.C,s57*%
X71670000Y-63850000D03*
%TD*%
%TO.C,s45*%
X85620000Y-69860000D03*
%TD*%
%TO.C,s18*%
X35135000Y-66670000D03*
%TD*%
%TO.C,s55*%
X71670000Y-59470000D03*
%TD*%
D12*
%TO.C,TP24*%
X50180000Y-38930000D03*
%TD*%
D19*
%TO.C,s44*%
X64450000Y-45970000D03*
%TD*%
%TO.C,s27*%
X35105000Y-65200000D03*
%TD*%
%TO.C,s42*%
X77950000Y-46460000D03*
%TD*%
%TO.C,s19*%
X29495000Y-63680000D03*
%TD*%
D21*
%TO.C,L4*%
X121700000Y-44000000D03*
X121700000Y-40000000D03*
X107700000Y-42000000D03*
%TD*%
D12*
%TO.C,TP15*%
X131490000Y-71194998D03*
%TD*%
D19*
%TO.C,s51*%
X71670000Y-48870000D03*
%TD*%
D21*
%TO.C,L2*%
X121700000Y-60666666D03*
X121700000Y-56666666D03*
X107700000Y-58666666D03*
%TD*%
D22*
%TO.C,RV3*%
X72445000Y-100940000D03*
X66625000Y-98400000D03*
X72435000Y-95850000D03*
%TD*%
D21*
%TO.C,L7*%
X121712500Y-86158333D03*
X121712500Y-82158333D03*
X107712500Y-84158333D03*
%TD*%
D19*
%TO.C,s13*%
X35155000Y-68140000D03*
%TD*%
D23*
%TO.C,J3*%
X26805000Y-58740000D03*
X26805000Y-59990000D03*
X26805000Y-61240000D03*
X26805000Y-62490000D03*
X26805000Y-63740000D03*
X26805000Y-64990000D03*
D24*
X23455000Y-56890000D03*
X23455000Y-66840000D03*
%TD*%
D12*
%TO.C,TP8*%
X125737500Y-84016668D03*
%TD*%
D25*
%TO.C,C128*%
X106886666Y-28730000D03*
X106886666Y-33730000D03*
%TD*%
D26*
%TO.C,J4*%
X32365000Y-54100000D03*
X31115000Y-54100000D03*
X29865000Y-54100000D03*
X28615000Y-54100000D03*
D27*
X34215000Y-50750000D03*
X26765000Y-50750000D03*
%TD*%
D19*
%TO.C,s54*%
X71670000Y-73460000D03*
%TD*%
D25*
%TO.C,C162*%
X80780000Y-28730000D03*
X80780000Y-33730000D03*
%TD*%
D19*
%TO.C,s24*%
X48620000Y-71472651D03*
%TD*%
%TO.C,s21*%
X29760000Y-58710000D03*
%TD*%
D25*
%TO.C,s5*%
X83480000Y-80836666D03*
%TD*%
D19*
%TO.C,s9*%
X38360000Y-79890000D03*
%TD*%
D28*
%TO.C,s49*%
X21180000Y-76690000D03*
%TD*%
D12*
%TO.C,TP9*%
X131490000Y-45810000D03*
%TD*%
%TO.C,TP12*%
X131490000Y-96580000D03*
%TD*%
D21*
%TO.C,L8*%
X121712500Y-77825000D03*
X121712500Y-73825000D03*
X107712500Y-75825000D03*
%TD*%
D19*
%TO.C,s46*%
X81830000Y-42150000D03*
%TD*%
D29*
%TO.C,L9*%
X71766828Y-33080000D03*
X65593172Y-33080000D03*
%TD*%
D19*
%TO.C,s39*%
X48650000Y-61210000D03*
%TD*%
%TO.C,s43*%
X41400000Y-85500000D03*
%TD*%
D25*
%TO.C,s2*%
X83470000Y-60650000D03*
%TD*%
D21*
%TO.C,L3*%
X121700000Y-52333333D03*
X121700000Y-48333333D03*
X107700000Y-50333333D03*
%TD*%
D19*
%TO.C,s23*%
X45170000Y-57110000D03*
%TD*%
%TO.C,s29*%
X38310000Y-32690000D03*
%TD*%
D18*
%TO.C,J10*%
X129980000Y-34850000D03*
X129980000Y-29850000D03*
%TD*%
D19*
%TO.C,s8*%
X35235000Y-72510000D03*
%TD*%
%TO.C,s50*%
X70440000Y-61770000D03*
%TD*%
%TO.C,s56*%
X71670000Y-78450000D03*
%TD*%
D30*
%TO.C,J2*%
X69730000Y-90055000D03*
D21*
X67900000Y-90055000D03*
X71560000Y-90055000D03*
%TD*%
D25*
%TO.C,s6*%
X83470000Y-94443334D03*
%TD*%
D19*
%TO.C,s22*%
X20830000Y-52660000D03*
%TD*%
D12*
%TO.C,TP7*%
X125737500Y-92408334D03*
%TD*%
D31*
%TO.C,J8*%
X29120000Y-103335000D03*
X29120000Y-96335000D03*
D32*
X32370000Y-98735000D03*
X32370000Y-101735000D03*
X25870000Y-93635000D03*
X32370000Y-94735000D03*
%TD*%
D19*
%TO.C,s25*%
X57330000Y-30140000D03*
%TD*%
D28*
%TO.C,s33*%
X27625000Y-76770000D03*
%TD*%
D22*
%TO.C,C39*%
X56370000Y-65090000D03*
X53870000Y-65090000D03*
%TD*%
D12*
%TO.C,TP10*%
X131490000Y-62733332D03*
%TD*%
D25*
%TO.C,s7*%
X83480000Y-97733334D03*
%TD*%
%TO.C,C127*%
X93833333Y-28730000D03*
X93833333Y-33730000D03*
%TD*%
D19*
%TO.C,s31*%
X93320000Y-83530000D03*
%TD*%
D12*
%TO.C,TP14*%
X131490000Y-88118330D03*
%TD*%
D26*
%TO.C,J7*%
X50740000Y-29680000D03*
X49490000Y-29680000D03*
X48240000Y-29680000D03*
X46990000Y-29680000D03*
X45740000Y-29680000D03*
X44490000Y-29680000D03*
D27*
X52590000Y-26330000D03*
X42640000Y-26330000D03*
%TD*%
D33*
%TO.C,U20*%
X71270000Y-28280000D03*
X68730000Y-28280000D03*
X66190000Y-28280000D03*
%TD*%
D25*
%TO.C,s4*%
X83470000Y-77546666D03*
%TD*%
D19*
%TO.C,s11*%
X35185000Y-71030000D03*
%TD*%
%TO.C,s17*%
X41060000Y-67770000D03*
%TD*%
D12*
%TO.C,TP3*%
X125750000Y-50191668D03*
%TD*%
%TO.C,TP1*%
X125750000Y-66975002D03*
%TD*%
D26*
%TO.C,J11*%
X32295000Y-29640000D03*
X31045000Y-29640000D03*
X29795000Y-29640000D03*
X28545000Y-29640000D03*
D27*
X34145000Y-26290000D03*
X26695000Y-26290000D03*
%TD*%
D25*
%TO.C,s0*%
X83470000Y-43753334D03*
%TD*%
D12*
%TO.C,TP13*%
X131490000Y-54271666D03*
%TD*%
D19*
%TO.C,s48*%
X32000000Y-69300000D03*
%TD*%
%TO.C,s53*%
X71670000Y-54090000D03*
%TD*%
D25*
%TO.C,s3*%
X83480000Y-63940000D03*
%TD*%
D19*
%TO.C,s37*%
X48650000Y-63410000D03*
%TD*%
D21*
%TO.C,L1*%
X121700000Y-69000000D03*
X121700000Y-65000000D03*
X107700000Y-67000000D03*
%TD*%
D19*
%TO.C,s12*%
X41200000Y-63260000D03*
%TD*%
D12*
%TO.C,TP6*%
X125737500Y-75625002D03*
%TD*%
D25*
%TO.C,s1*%
X83480000Y-47043334D03*
%TD*%
D19*
%TO.C,s41*%
X27420000Y-80640000D03*
%TD*%
D30*
%TO.C,J9*%
X60885000Y-89975000D03*
D21*
X59055000Y-89975000D03*
X62715000Y-89975000D03*
%TD*%
D25*
%TO.C,C132*%
X119940000Y-28730000D03*
X119940000Y-33730000D03*
%TD*%
D23*
%TO.C,J12*%
X52920000Y-96215000D03*
X52920000Y-97465000D03*
X52920000Y-98715000D03*
X52920000Y-99965000D03*
X52920000Y-101215000D03*
X52920000Y-102465000D03*
D24*
X49570000Y-94365000D03*
X49570000Y-104315000D03*
%TD*%
D22*
%TO.C,C4*%
X56370000Y-50160000D03*
X53870000Y-50160000D03*
%TD*%
D28*
%TO.C,s35*%
X23425000Y-76770000D03*
%TD*%
D19*
%TO.C,s10*%
X41070000Y-66170000D03*
%TD*%
D12*
%TO.C,TP2*%
X125750000Y-58583334D03*
%TD*%
D19*
%TO.C,s28*%
X38140000Y-37710000D03*
%TD*%
D21*
%TO.C,L5*%
X121712500Y-102825000D03*
X121712500Y-98825000D03*
X107712500Y-100825000D03*
%TD*%
D28*
%TO.C,s32*%
X29725000Y-76770000D03*
%TD*%
D19*
%TO.C,s16*%
X29505000Y-65070000D03*
%TD*%
%TO.C,s26*%
X35275000Y-73880000D03*
%TD*%
D21*
%TO.C,L6*%
X121712500Y-94491666D03*
X121712500Y-90491666D03*
X107712500Y-92491666D03*
%TD*%
D12*
%TO.C,TP11*%
X131490000Y-79656664D03*
%TD*%
D19*
%TO.C,s40*%
X48550000Y-76022651D03*
%TD*%
%TO.C,s14*%
X35135000Y-69630000D03*
%TD*%
D20*
%TO.C,IC2*%
X96277500Y-94995000D03*
X96277500Y-94360000D03*
X96277500Y-93725000D03*
X96277500Y-93090000D03*
X96277500Y-92455000D03*
X96277500Y-91820000D03*
X96277500Y-91185000D03*
X96277500Y-90550000D03*
X96277500Y-89915000D03*
X96277500Y-89280000D03*
X96277500Y-88645000D03*
X96277500Y-88010000D03*
X96277500Y-87375000D03*
X96277500Y-86740000D03*
X96277500Y-86105000D03*
X96277500Y-85470000D03*
X96277500Y-84835000D03*
X96277500Y-84200000D03*
X96277500Y-83565000D03*
X96277500Y-82930000D03*
X96277500Y-82295000D03*
X96277500Y-81660000D03*
X103912500Y-81660000D03*
X103912500Y-82295000D03*
X103912500Y-82930000D03*
X103912500Y-83565000D03*
X103912500Y-84200000D03*
X103912500Y-84835000D03*
X103912500Y-85470000D03*
X103912500Y-86105000D03*
X103912500Y-86740000D03*
X103912500Y-87375000D03*
X103912500Y-88010000D03*
X103912500Y-88645000D03*
X103912500Y-89280000D03*
X103912500Y-89915000D03*
X103912500Y-90550000D03*
X103912500Y-91185000D03*
X103912500Y-91820000D03*
X103912500Y-92455000D03*
X103912500Y-93090000D03*
X103912500Y-93725000D03*
X103912500Y-94360000D03*
X103912500Y-94995000D03*
%TD*%
D22*
%TO.C,RV4*%
X63600000Y-100860000D03*
X57780000Y-98320000D03*
X63590000Y-95770000D03*
%TD*%
D34*
%TO.C,TH2*%
X93575000Y-43710000D03*
X92205000Y-43710000D03*
%TD*%
D28*
%TO.C,s34*%
X25525000Y-76770000D03*
%TD*%
D12*
%TO.C,TP4*%
X125750000Y-41800002D03*
%TD*%
D19*
%TO.C,s52*%
X71670000Y-68850000D03*
%TD*%
D28*
%TO.C,s36*%
X31665000Y-76790000D03*
%TD*%
D31*
%TO.C,J6*%
X41180000Y-103425000D03*
X41180000Y-96425000D03*
D32*
X44430000Y-98825000D03*
X44430000Y-101825000D03*
X37930000Y-93725000D03*
X44430000Y-94825000D03*
%TD*%
D12*
%TO.C,TP5*%
X125737500Y-100800002D03*
%TD*%
D19*
%TO.C,s47*%
X81350000Y-44720000D03*
%TD*%
M02*
