M48
; DRILL file {KiCad 8.0.3} date 2024-09-02T13:55:03+0200
; FORMAT={-:-/ absolute / metric / decimal}
; #@! TF.CreationDate,2024-09-02T13:55:03+02:00
; #@! TF.GenerationSoftware,Kicad,Pcbnew,8.0.3
; #@! TF.FileFunction,Plated,1,2,PTH
FMAT,2
METRIC
; #@! TA.AperFunction,Plated,PTH,ViaDrill
T1C0.300
; #@! TA.AperFunction,Plated,PTH,ViaDrill
T2C0.500
; #@! TA.AperFunction,Plated,PTH,ComponentDrill
T3C0.700
; #@! TA.AperFunction,Plated,PTH,ViaDrill
T4C0.800
; #@! TA.AperFunction,Plated,PTH,ComponentDrill
T5C0.800
; #@! TA.AperFunction,Plated,PTH,ComponentDrill
T6C1.000
; #@! TA.AperFunction,Plated,PTH,ComponentDrill
T7C1.100
; #@! TA.AperFunction,Plated,PTH,ComponentDrill
T8C1.200
; #@! TA.AperFunction,Plated,PTH,ComponentDrill
T9C1.500
; #@! TA.AperFunction,Plated,PTH,ViaDrill
T10C2.000
; #@! TA.AperFunction,Plated,PTH,ComponentDrill
T11C2.100
; #@! TA.AperFunction,Plated,PTH,ComponentDrill
T12C2.200
; #@! TA.AperFunction,Plated,PTH,ComponentDrill
T13C2.600
; #@! TA.AperFunction,Plated,PTH,ComponentDrill
T14C2.700
; #@! TA.AperFunction,Plated,PTH,ComponentDrill
T15C3.000
; #@! TA.AperFunction,Plated,PTH,ComponentDrill
T16C3.200
%
G90
G05
T1
X19.16Y-68.85
X19.33Y-56.95
X19.47Y-40.13
X19.47Y-47.86
X19.51Y-70.49
X19.62Y-62.96
X19.63Y-29.86
X19.64Y-51.22
X19.86Y-60.67
X19.99Y-77.04
X20.13Y-56.95
X20.2Y-86.15
X20.6Y-93.04
X20.73Y-60.52
X20.79Y-53.74
X20.92Y-32.9
X20.93Y-57.16
X20.98Y-98.16
X21.1Y-58.09
X21.1Y-58.88
X21.1Y-59.75
X21.36Y-75.01
X21.54Y-65.27
X21.81Y-36.88
X21.88Y-103.24
X22.45Y-69.35
X22.81Y-80.01
X22.82Y-83.04
X22.9Y-77.96
X22.95Y-41.58
X22.99Y-55.59
X23.18Y-37.7
X23.19Y-38.66
X23.335Y-70.87
X23.38Y-25.86
X23.52Y-90.37
X23.57Y-82.04
X24.3Y-48.17
X24.4Y-88.71
X24.475Y-75.25
X24.76Y-58.77
X24.77Y-37.7
X24.79Y-38.66
X24.825Y-83.27
X25.5Y-63.14
X25.525Y-77.95
X25.55Y-60.02
X25.67Y-34.49
X25.72Y-82.01
X25.79Y-80.6
X25.89Y-70.38
X25.99Y-30.22
X26.01Y-28.32
X26.03Y-68.58
X26.672Y-75.257
X26.7Y-54.98
X26.74Y-54.36
X26.99Y-45.28
X27.33Y-81.69
X27.63Y-66.02
X27.695Y-77.96
X28.025Y-61.26
X28.06Y-62.26
X28.13Y-49.02
X28.15Y-94.87
X28.225Y-58.69
X28.31Y-57.66
X28.37Y-51.32
X28.485Y-72.82
X28.56Y-36.26
X28.965Y-79.81
X29.06Y-48.92
X29.065Y-75.28
X29.08Y-101.32
X29.27Y-51.26
X29.33Y-68.55
X29.34Y-98.56
X29.43Y-90.96
X29.565Y-88.31
X29.735Y-77.96
X29.8Y-28.26
X29.8Y-55.98
X30.39Y-44.98
X30.51Y-75.47
X30.53Y-48.94
X30.62Y-52.58
X30.645Y-62.13
X30.695Y-65.292
X30.82Y-33.62
X30.92Y-66.77
X30.985Y-82.26
X31.01Y-60.73
X31.06Y-28.23
X31.17Y-39.97
X31.195Y-79.24
X31.2Y-55.3
X31.24Y-62.85
X31.27Y-65.92
X31.34Y-64.78
X32.08Y-104.04
X32.1Y-56.0
X32.5Y-71.93
X32.685Y-77.36
X32.71Y-88.09
X32.76Y-91.05
X32.81Y-61.3
X32.9Y-73.17
X32.96Y-75.72
X33.07Y-66.95
X33.19Y-36.86
X33.59Y-58.12
X33.73Y-83.1
X33.84Y-71.41
X33.94Y-96.58
X34.04Y-59.71
X34.045Y-69.61
X34.06Y-92.58
X34.24Y-70.5
X34.255Y-65.83
X34.345Y-63.3
X34.44Y-98.71
X34.46Y-94.71
X34.67Y-101.48
X34.8Y-60.39
X35.16Y-63.41
X35.345Y-80.63
X35.62Y-60.45
X35.69Y-56.38
X35.81Y-34.4
X36.02Y-94.09
X36.025Y-67.354
X36.025Y-82.26
X36.035Y-68.72
X36.09Y-97.74
X36.11Y-59.77
X36.435Y-73.91
X36.45Y-47.58
X36.515Y-72.04
X36.525Y-78.12
X36.55Y-85.96
X36.58Y-61.89
X36.6Y-58.64
X36.66Y-76.02
X36.71Y-39.71
X36.88Y-37.87
X37.11Y-101.31
X37.61Y-87.74
X38.42Y-99.78
X38.6Y-104.07
X38.77Y-55.9
X38.78Y-69.71
X38.95Y-49.16
X38.98Y-68.74
X39.08Y-54.77
X39.299Y-32.051
X39.32Y-83.54
X39.37Y-37.8
X39.49Y-46.62
X39.63Y-77.5
X39.67Y-79.76
X39.77Y-103.07
X39.805Y-81.534
X39.89Y-55.75
X39.9Y-59.67
X39.9Y-65.14
X39.9Y-67.29
X39.92Y-70.33
X39.93Y-61.3
X39.93Y-63.23
X39.93Y-66.38
X40.07Y-85.5
X40.29Y-51.1
X40.45Y-73.51
X40.475Y-42.66
X40.78Y-91.13
X41.01Y-25.53
X41.08Y-77.35
X41.37Y-94.83
X41.42Y-101.35
X41.45Y-52.63
X41.52Y-70.33
X41.58Y-86.82
X41.63Y-55.74
X42.05Y-57.12
X42.06Y-74.81
X42.07Y-67.29
X42.1Y-80.62
X42.35Y-41.27
X42.37Y-98.86
X42.45Y-94.63
X42.61Y-103.22
X42.68Y-79.05
X42.75Y-59.66
X42.75Y-73.45
X42.752Y-65.14
X43.41Y-55.89
X43.41Y-66.39
X43.41Y-70.69
X43.61Y-50.19
X43.74Y-31.57
X43.94Y-75.52
X43.95Y-67.215
X44.28Y-35.05
X44.36Y-25.92
X44.37Y-89.63
X44.47Y-61.3
X44.47Y-80.62
X44.48Y-68.36
X44.49Y-54.08
X44.56Y-84.88
X44.57Y-52.22
X44.63Y-51.41
X44.81Y-38.92
X45.15Y-54.75
X45.83Y-69.58
X45.84Y-63.22
X46.19Y-33.01
X46.26Y-54.06
X46.28Y-103.76
X46.4Y-55.89
X46.41Y-57.13
X46.42Y-52.25
X46.72Y-101.96
X46.82Y-96.17
X46.98Y-30.92
X47.03Y-51.64
X47.08Y-75.99
X47.23Y-61.22
X47.23Y-66.18
X47.28Y-74.463
X47.29Y-72.953
X47.3Y-25.82
X47.34Y-70.683
X47.37Y-71.853
X47.38Y-59.65
X47.38Y-67.193
X47.38Y-69.563
X47.39Y-58.14
X47.39Y-68.353
X47.76Y-93.26
X48.1Y-98.98
X48.25Y-30.91
X48.45Y-46.52
X48.67Y-74.423
X48.68Y-72.903
X48.77Y-59.61
X48.78Y-58.09
X49.18Y-50.43
X49.5Y-30.91
X49.7Y-88.23
X50.09Y-77.343
X50.1Y-76.493
X50.19Y-62.53
X50.2Y-61.68
X50.6Y-44.52
X50.72Y-31.04
X50.96Y-25.68
X51.09Y-66.483
X51.44Y-94.04
X52.32Y-95.41
X52.88Y-49.39
X53.04Y-67.21
X53.16Y-52.42
X53.76Y-88.91
X53.91Y-45.64
X54.17Y-27.11
X54.18Y-97.29
X54.21Y-98.63
X54.27Y-63.98
X54.33Y-101.14
X54.41Y-96.14
X54.43Y-34.03
X54.47Y-99.95
X54.6Y-40.58
X55.12Y-102.78
X55.17Y-46.04
X55.4Y-93.73
X55.84Y-30.6
X56.07Y-43.21
X56.16Y-29.11
X56.43Y-62.46
X56.43Y-77.283
X56.59Y-56.36
X56.6Y-71.093
X56.664Y-68.693
X56.72Y-45.92
X56.77Y-31.46
X56.79Y-43.36
X57.01Y-94.32
X57.13Y-70.22
X57.23Y-45.36
X57.25Y-44.16
X57.6Y-64.32
X57.62Y-62.68
X57.7Y-41.19
X57.95Y-97.18
X57.97Y-59.63
X58.14Y-43.74
X58.18Y-74.353
X58.3Y-85.52
X59.15Y-61.27
X59.34Y-26.07
X60.14Y-76.6
X60.17Y-46.33
X61.78Y-96.44
X62.41Y-98.18
X62.67Y-77.51
X63.38Y-47.83
X63.45Y-57.83
X63.65Y-31.26
X63.69Y-29.42
X63.83Y-42.24
X64.69Y-101.51
X65.14Y-42.16
X65.15Y-98.24
X65.27Y-88.81
X65.43Y-38.87
X65.86Y-42.87
X65.91Y-46.05
X65.94Y-78.5
X66.08Y-94.43
X66.15Y-68.44
X66.585Y-58.85
X66.665Y-49.06
X66.76Y-97.24
X67.64Y-85.9
X68.26Y-32.49
X68.72Y-30.12
X69.74Y-32.77
X70.18Y-64.06
X70.33Y-54.13
X70.38Y-73.59
X70.55Y-83.79
X70.89Y-96.16
X71.89Y-42.91
X72.09Y-39.3
X72.09Y-98.26
X72.59Y-99.9
X72.72Y-79.06
X72.83Y-49.2
X72.88Y-68.88
X72.89Y-59.53
X73.07Y-85.73
X73.3Y-66.42
X73.39Y-56.11
X73.75Y-75.92
X74.16Y-37.72
X74.22Y-86.09
X74.23Y-86.93
X74.33Y-95.01
X74.54Y-78.69
X74.67Y-94.28
X74.7Y-33.45
X74.72Y-46.57
X74.75Y-27.77
X74.77Y-96.06
X74.87Y-30.54
X74.87Y-77.69
X74.93Y-48.08
X75.32Y-49.71
X75.33Y-66.63
X75.33Y-76.17
X75.34Y-83.56
X75.35Y-55.81
X75.35Y-100.46
X75.37Y-59.24
X75.37Y-104.38
X75.38Y-42.54
X75.38Y-69.95
X75.38Y-93.11
X75.38Y-98.91
X76.03Y-77.68
X76.05Y-63.45
X76.05Y-80.34
X76.06Y-97.23
X76.07Y-46.553
X76.07Y-72.54
X76.07Y-85.76
X76.72Y-51.19
X76.72Y-101.84
X76.73Y-40.96
X76.73Y-57.74
X76.73Y-68.09
X76.73Y-74.63
X76.73Y-85.05
X76.733Y-91.533
X76.83Y-37.7
X77.26Y-41.57
X77.26Y-104.38
X77.263Y-92.27
X77.27Y-50.51
X77.27Y-58.46
X77.27Y-75.37
X77.27Y-84.44
X77.27Y-101.16
X77.28Y-67.39
X77.81Y-56.42
X77.81Y-96.05
X77.82Y-52.39
X77.82Y-69.29
X77.82Y-73.27
X77.82Y-90.17
X77.83Y-86.18
X77.83Y-103.1
X78.35Y-51.77
X78.35Y-57.15
X78.35Y-68.66
X78.35Y-74.05
X78.35Y-85.57
X78.35Y-90.94
X78.35Y-94.25
X78.35Y-102.46
X78.88Y-48.06
X78.88Y-69.95
X78.88Y-86.93
X78.88Y-98.93
X78.89Y-55.79
X78.89Y-78.7
X79.51Y-72.57
X79.81Y-46.553
X79.81Y-63.45
X79.81Y-80.347
X79.81Y-97.243
X80.0Y-44.35
X80.19Y-57.15
X80.19Y-74.047
X80.19Y-90.943
X80.21Y-58.32
X80.21Y-75.217
X80.21Y-92.113
X80.23Y-51.773
X80.23Y-68.67
X80.23Y-102.463
X80.3Y-100.33
X80.31Y-42.52
X80.31Y-50.503
X80.31Y-67.4
X80.31Y-83.56
X80.31Y-101.193
X80.32Y-49.69
X80.32Y-59.24
X80.33Y-85.57
X80.34Y-76.18
X80.34Y-84.44
X80.36Y-41.5
X80.36Y-93.12
X80.37Y-66.5
X80.47Y-61.13
X80.47Y-78.027
X80.47Y-94.923
X80.75Y-35.65
X80.77Y-31.85
X81.38Y-104.89
X81.5Y-88.28
X81.54Y-54.45
X81.55Y-71.41
X81.69Y-47.513
X81.69Y-64.41
X81.69Y-81.307
X81.69Y-98.203
X81.73Y-96.34
X82.57Y-84.98
X82.6Y-51.203
X82.6Y-52.343
X82.6Y-68.1
X82.6Y-69.24
X82.6Y-86.137
X82.6Y-101.893
X82.6Y-103.033
X82.68Y-40.843
X82.68Y-57.74
X82.68Y-74.637
X82.68Y-91.533
X82.69Y-56.57
X82.69Y-73.467
X82.69Y-90.363
X82.97Y-44.693
X82.97Y-61.59
X82.97Y-78.487
X82.97Y-95.383
X84.12Y-96.28
X84.21Y-85.847
X84.21Y-102.743
X84.23Y-54.38
X84.33Y-88.18
X84.7Y-40.89
X85.03Y-104.76
X85.09Y-39.3
X85.16Y-46.06
X85.32Y-74.16
X85.38Y-68.42
X85.41Y-42.91
X85.66Y-71.24
X85.82Y-63.06
X85.9Y-102.61
X85.94Y-38.19
X86.07Y-100.57
X86.11Y-61.59
X86.12Y-52.33
X86.2Y-77.91
X86.212Y-96.855
X86.26Y-95.32
X86.32Y-86.46
X86.785Y-42.51
X88.31Y-69.63
X88.34Y-40.9
X88.35Y-66.86
X89.17Y-71.32
X89.25Y-100.87
X89.29Y-105.02
X89.43Y-51.57
X89.57Y-46.0
X89.62Y-52.87
X89.69Y-86.7
X89.733Y-85.505
X90.1Y-50.97
X90.1Y-84.69
X90.36Y-42.84
X90.74Y-40.24
X90.75Y-58.71
X90.76Y-91.73
X90.763Y-92.535
X90.77Y-57.85
X90.91Y-60.24
X90.922Y-94.065
X91.51Y-54.25
X91.73Y-40.45
X92.06Y-61.56
X92.2Y-105.02
X92.71Y-88.22
X92.84Y-95.07
X92.98Y-89.87
X93.29Y-55.81
X93.55Y-80.57
X93.76Y-46.38
X94.19Y-41.26
X94.3Y-66.34
X94.36Y-100.18
X94.42Y-84.17
X94.55Y-71.44
X94.62Y-60.87
X94.63Y-57.24
X94.66Y-74.24
X94.74Y-79.94
X94.77Y-94.52
X94.815Y-86.74
X94.89Y-49.75
X94.89Y-91.12
X94.9Y-52.89
X94.91Y-48.38
X94.95Y-83.52
X95.08Y-81.95
X95.27Y-59.99
X95.315Y-86.076
X95.36Y-61.18
X95.362Y-87.385
X95.39Y-93.85
X95.4Y-52.255
X95.41Y-53.56
X95.43Y-47.74
X95.43Y-50.38
X95.43Y-56.7
X95.44Y-95.01
X95.442Y-90.525
X95.46Y-54.91
X95.46Y-66.66
X95.47Y-49.07
X95.472Y-88.735
X95.483Y-82.895
X95.49Y-81.24
X95.675Y-46.195
X95.85Y-63.88
X96.03Y-41.88
X96.16Y-72.57
X96.212Y-103.585
X96.24Y-77.62
X96.27Y-96.57
X96.32Y-69.32
X97.3Y-89.22
X97.4Y-55.45
X97.75Y-43.37
X97.79Y-104.62
X97.86Y-56.23
X97.873Y-89.925
X98.41Y-69.34
X98.43Y-60.52
X98.44Y-72.84
X98.442Y-94.345
X98.442Y-103.585
X98.453Y-77.65
X103.35Y-103.87
X103.37Y-100.08
X104.85Y-61.325
X104.862Y-95.15
X104.875Y-60.325
X104.887Y-94.15
X104.9Y-46.9
X104.912Y-80.725
X105.0Y-48.0
X105.012Y-81.825
X106.43Y-103.92
X106.7Y-46.0
X106.712Y-79.825
X107.625Y-62.8
X107.637Y-96.625
X107.9Y-54.3
X107.912Y-88.125
X110.6Y-54.3
X110.612Y-88.125
T2
X102.78Y-55.93
X102.82Y-52.88
X102.83Y-89.74
X102.87Y-86.69
X104.94Y-51.74
X104.95Y-52.54
X104.99Y-85.55
X105.0Y-57.03
X105.0Y-86.35
X105.02Y-56.21
X105.05Y-90.84
X105.07Y-90.02
X106.82Y-43.21
X106.832Y-77.035
X107.2Y-65.5
X107.212Y-99.325
X107.59Y-43.43
X107.602Y-77.255
X108.03Y-65.5
X108.042Y-99.325
X109.1Y-49.7
X109.1Y-50.7
X109.112Y-83.525
X109.112Y-84.525
X109.3Y-58.2
X109.3Y-59.03
X109.312Y-92.025
X109.312Y-92.855
X122.7Y-75.34
X122.7Y-76.29
X122.72Y-58.24
X122.72Y-59.19
X122.73Y-49.84
X122.73Y-50.79
X122.74Y-41.51
X122.74Y-42.46
X122.79Y-92.17
X122.79Y-93.12
X122.82Y-66.6
X122.82Y-67.55
X122.84Y-83.74
X122.84Y-84.69
X122.86Y-100.53
X122.86Y-101.48
T3
X53.87Y-50.16
X53.87Y-65.09
X56.37Y-50.16
X56.37Y-65.09
T4
X84.52Y-32.6
X84.62Y-35.3
X87.29Y-74.93
X90.91Y-32.47
X91.11Y-35.63
X96.2Y-35.96
X101.672Y-96.655
X101.912Y-80.425
X102.48Y-46.89
X102.83Y-61.69
X103.887Y-96.2
X104.31Y-35.6
X104.48Y-45.31
X104.71Y-62.69
X104.95Y-78.39
X105.04Y-98.21
X105.1Y-43.31
X105.26Y-65.02
X108.85Y-39.43
X109.01Y-78.79
X109.03Y-36.6
X109.07Y-44.36
X109.09Y-46.97
X109.16Y-69.05
X109.18Y-72.6
X109.36Y-81.69
X109.85Y-98.7
X110.03Y-32.34
X110.09Y-94.75
X110.11Y-60.65
X110.16Y-64.33
X110.56Y-52.82
X110.572Y-86.645
X110.6Y-55.83
X110.612Y-89.655
X113.9Y-55.82
X113.99Y-46.66
X114.21Y-89.75
X114.4Y-52.6
X114.412Y-86.425
X114.46Y-94.95
X114.53Y-42.14
X114.55Y-99.05
X114.93Y-61.23
X115.63Y-64.64
X115.66Y-69.39
X115.9Y-86.44
X116.01Y-89.83
X116.02Y-52.65
X116.075Y-39.325
X116.087Y-73.15
X116.1Y-55.85
X116.15Y-45.125
X116.15Y-47.8
X116.162Y-78.95
X116.162Y-81.625
X116.62Y-32.37
X117.15Y-35.2
X122.24Y-36.0
X126.16Y-36.86
X127.42Y-98.36
X127.44Y-39.35
X127.45Y-64.57
X127.48Y-73.23
X127.52Y-56.11
X127.59Y-47.89
X127.6Y-90.11
X127.61Y-81.73
T5
X60.885Y-89.975
X69.73Y-90.055
T6
X23.985Y-52.82
X23.985Y-54.21
X29.04Y-83.57
X80.78Y-28.73
X80.78Y-33.73
X93.833Y-28.73
X93.833Y-33.73
X106.887Y-28.73
X106.887Y-33.73
X107.7Y-42.0
X107.7Y-50.333
X107.7Y-58.667
X107.7Y-67.0
X107.712Y-75.825
X107.712Y-84.158
X107.712Y-92.492
X107.712Y-100.825
X119.94Y-28.73
X119.94Y-33.73
X121.7Y-40.0
X121.7Y-44.0
X121.7Y-48.333
X121.7Y-52.333
X121.7Y-56.667
X121.7Y-60.667
X121.7Y-65.0
X121.7Y-69.0
X121.712Y-73.825
X121.712Y-77.825
X121.712Y-82.158
X121.712Y-86.158
X121.712Y-90.492
X121.712Y-94.492
X121.712Y-98.825
X121.712Y-102.825
T7
X66.19Y-28.28
X68.73Y-28.28
X71.27Y-28.28
T8
X59.055Y-89.975
X62.715Y-89.975
X67.9Y-90.055
X71.56Y-90.055
T9
X65.593Y-33.08
X71.767Y-33.08
T10
X100.44Y-88.21
X100.46Y-54.42
T11
X60.65Y-40.54
X68.76Y-39.67
T12
X100.16Y-71.19
T13
X54.0Y-74.183
X54.1Y-59.37
T14
X129.98Y-29.85
X129.98Y-34.85
T15
X27.36Y-42.3
T16
X15.08Y-27.96
X15.08Y-102.96
X138.08Y-27.96
X138.08Y-102.96
M30
