%TF.GenerationSoftware,KiCad,Pcbnew,8.0.3*%
%TF.CreationDate,2024-09-02T13:54:09+02:00*%
%TF.ProjectId,uberamp1,75626572-616d-4703-912e-6b696361645f,rev?*%
%TF.SameCoordinates,Original*%
%TF.FileFunction,Paste,Top*%
%TF.FilePolarity,Positive*%
%FSLAX46Y46*%
G04 Gerber Fmt 4.6, Leading zero omitted, Abs format (unit mm)*
G04 Created by KiCad (PCBNEW 8.0.3) date 2024-09-02 13:54:09*
%MOMM*%
%LPD*%
G01*
G04 APERTURE LIST*
G04 Aperture macros list*
%AMRoundRect*
0 Rectangle with rounded corners*
0 $1 Rounding radius*
0 $2 $3 $4 $5 $6 $7 $8 $9 X,Y pos of 4 corners*
0 Add a 4 corners polygon primitive as box body*
4,1,4,$2,$3,$4,$5,$6,$7,$8,$9,$2,$3,0*
0 Add four circle primitives for the rounded corners*
1,1,$1+$1,$2,$3*
1,1,$1+$1,$4,$5*
1,1,$1+$1,$6,$7*
1,1,$1+$1,$8,$9*
0 Add four rect primitives between the rounded corners*
20,1,$1+$1,$2,$3,$4,$5,0*
20,1,$1+$1,$4,$5,$6,$7,0*
20,1,$1+$1,$6,$7,$8,$9,0*
20,1,$1+$1,$8,$9,$2,$3,0*%
%AMHorizOval*
0 Thick line with rounded ends*
0 $1 width*
0 $2 $3 position (X,Y) of the first rounded end (center of the circle)*
0 $4 $5 position (X,Y) of the second rounded end (center of the circle)*
0 Add line between two ends*
20,1,$1,$2,$3,$4,$5,0*
0 Add two circle primitives to create the rounded ends*
1,1,$1,$2,$3*
1,1,$1,$4,$5*%
G04 Aperture macros list end*
%ADD10RoundRect,0.212000X0.178000X-0.053000X0.178000X0.053000X-0.178000X0.053000X-0.178000X-0.053000X0*%
%ADD11O,0.810000X1.390000*%
%ADD12O,0.870000X1.410000*%
%ADD13RoundRect,0.212000X-0.053000X-0.178000X0.053000X-0.178000X0.053000X0.178000X-0.053000X0.178000X0*%
%ADD14RoundRect,0.210000X-0.220971X-0.146725X-0.146725X-0.220971X0.220971X0.146725X0.146725X0.220971X0*%
%ADD15RoundRect,0.212000X0.053000X0.178000X-0.053000X0.178000X-0.053000X-0.178000X0.053000X-0.178000X0*%
%ADD16RoundRect,0.210000X-0.260000X0.052500X-0.260000X-0.052500X0.260000X-0.052500X0.260000X0.052500X0*%
%ADD17RoundRect,0.181129X0.077627X-0.140127X0.077627X0.140127X-0.077627X0.140127X-0.077627X-0.140127X0*%
%ADD18RoundRect,0.210000X-0.052500X-0.260000X0.052500X-0.260000X0.052500X0.260000X-0.052500X0.260000X0*%
%ADD19O,1.150000X1.300000*%
%ADD20O,0.549996X1.129996*%
%ADD21RoundRect,0.210000X0.220971X0.146725X0.146725X0.220971X-0.220971X-0.146725X-0.146725X-0.220971X0*%
%ADD22RoundRect,0.212000X-0.178000X0.053000X-0.178000X-0.053000X0.178000X-0.053000X0.178000X0.053000X0*%
%ADD23RoundRect,0.228000X0.499500X-0.152000X0.499500X0.152000X-0.499500X0.152000X-0.499500X-0.152000X0*%
%ADD24RoundRect,0.228000X0.504500X-0.152000X0.504500X0.152000X-0.504500X0.152000X-0.504500X-0.152000X0*%
%ADD25RoundRect,0.210000X0.052500X0.260000X-0.052500X0.260000X-0.052500X-0.260000X0.052500X-0.260000X0*%
%ADD26RoundRect,0.150000X-0.150000X-0.200000X0.150000X-0.200000X0.150000X0.200000X-0.150000X0.200000X0*%
%ADD27RoundRect,0.212000X0.163342X0.088388X0.088388X0.163342X-0.163342X-0.088388X-0.088388X-0.163342X0*%
%ADD28RoundRect,0.210000X0.260000X-0.052500X0.260000X0.052500X-0.260000X0.052500X-0.260000X-0.052500X0*%
%ADD29RoundRect,0.402259X-0.100565X0.222741X-0.100565X-0.222741X0.100565X-0.222741X0.100565X0.222741X0*%
%ADD30O,1.589972X1.330000*%
%ADD31RoundRect,0.250000X0.650000X-0.325000X0.650000X0.325000X-0.650000X0.325000X-0.650000X-0.325000X0*%
%ADD32C,1.000000*%
%ADD33O,0.659998X0.769998*%
%ADD34O,1.800000X6.200000*%
%ADD35C,0.350000*%
%ADD36RoundRect,0.212000X-0.088388X0.163342X-0.163342X0.088388X0.088388X-0.163342X0.163342X-0.088388X0*%
%ADD37RoundRect,0.150000X-0.200000X0.150000X-0.200000X-0.150000X0.200000X-0.150000X0.200000X0.150000X0*%
%ADD38O,0.500000X0.740000*%
%ADD39O,1.390000X0.810000*%
%ADD40O,1.410000X0.870000*%
%ADD41O,0.700000X0.450000*%
%ADD42RoundRect,0.250000X0.250000X-0.250000X0.250000X0.250000X-0.250000X0.250000X-0.250000X-0.250000X0*%
%ADD43RoundRect,0.212000X-0.163342X-0.088388X-0.088388X-0.163342X0.163342X0.088388X0.088388X0.163342X0*%
%ADD44RoundRect,0.181129X-0.140127X-0.077627X0.140127X-0.077627X0.140127X0.077627X-0.140127X0.077627X0*%
%ADD45RoundRect,0.250000X-0.325000X-1.100000X0.325000X-1.100000X0.325000X1.100000X-0.325000X1.100000X0*%
%ADD46RoundRect,0.181129X0.140127X0.077627X-0.140127X0.077627X-0.140127X-0.077627X0.140127X-0.077627X0*%
%ADD47RoundRect,0.250000X1.100000X-0.325000X1.100000X0.325000X-1.100000X0.325000X-1.100000X-0.325000X0*%
%ADD48RoundRect,0.250000X-1.100000X0.325000X-1.100000X-0.325000X1.100000X-0.325000X1.100000X0.325000X0*%
%ADD49O,1.300000X1.150000*%
%ADD50RoundRect,0.225000X0.225000X-0.425000X0.225000X0.425000X-0.225000X0.425000X-0.225000X-0.425000X0*%
%ADD51RoundRect,0.381000X-0.762000X-0.381000X0.762000X-0.381000X0.762000X0.381000X-0.762000X0.381000X0*%
%ADD52RoundRect,0.250000X-0.900000X1.000000X-0.900000X-1.000000X0.900000X-1.000000X0.900000X1.000000X0*%
%ADD53RoundRect,0.641200X-0.274800X0.501800X-0.274800X-0.501800X0.274800X-0.501800X0.274800X0.501800X0*%
%ADD54HorizOval,0.310000X-0.134350X0.134350X0.134350X-0.134350X0*%
%ADD55HorizOval,0.310000X-0.134350X-0.134350X0.134350X0.134350X0*%
%ADD56O,0.790000X0.440000*%
%ADD57O,1.445000X1.100000*%
%ADD58RoundRect,0.427500X0.427500X0.972500X-0.427500X0.972500X-0.427500X-0.972500X0.427500X-0.972500X0*%
%ADD59RoundRect,0.250000X0.250000X0.475000X-0.250000X0.475000X-0.250000X-0.475000X0.250000X-0.475000X0*%
G04 APERTURE END LIST*
D10*
%TO.C,R211*%
X50780000Y-28295000D03*
X50780000Y-26925000D03*
%TD*%
D11*
%TO.C,D6*%
X125895000Y-48135000D03*
D12*
X124155000Y-48125000D03*
%TD*%
D13*
%TO.C,R243*%
X40645000Y-28810000D03*
X42015000Y-28810000D03*
%TD*%
%TO.C,R173*%
X63465000Y-80000000D03*
X64835000Y-80000000D03*
%TD*%
%TO.C,R7*%
X90785000Y-45910000D03*
X92155000Y-45910000D03*
%TD*%
D14*
%TO.C,C78*%
X25276533Y-67856533D03*
X26563467Y-69143467D03*
%TD*%
D13*
%TO.C,C119*%
X67735000Y-77560000D03*
X69105000Y-77560000D03*
%TD*%
%TO.C,C121*%
X63525000Y-86650000D03*
X64895000Y-86650000D03*
%TD*%
%TO.C,R114*%
X64260000Y-55370000D03*
X65630000Y-55370000D03*
%TD*%
D15*
%TO.C,R18*%
X88125000Y-58747140D03*
X86755000Y-58747140D03*
%TD*%
D13*
%TO.C,R168*%
X72285000Y-72320000D03*
X73655000Y-72320000D03*
%TD*%
D16*
%TO.C,C102*%
X75120000Y-81210000D03*
X75120000Y-83030000D03*
%TD*%
D15*
%TO.C,C33*%
X125695000Y-52540000D03*
X124325000Y-52540000D03*
%TD*%
D17*
%TO.C,Q3*%
X42470000Y-32060000D03*
X40148756Y-31111256D03*
X42470000Y-30160000D03*
%TD*%
D18*
%TO.C,C109*%
X57590000Y-76612651D03*
X59410000Y-76612651D03*
%TD*%
D19*
%TO.C,C142*%
X24445000Y-73805000D03*
X21495000Y-73805000D03*
%TD*%
D16*
%TO.C,C99*%
X75100000Y-64240000D03*
X75100000Y-66060000D03*
%TD*%
D15*
%TO.C,R227*%
X36685000Y-95900000D03*
X35315000Y-95900000D03*
%TD*%
D11*
%TO.C,LED3*%
X92385000Y-82775000D03*
D12*
X90645000Y-82765000D03*
%TD*%
D20*
%TO.C,U8*%
X61124998Y-95320000D03*
X59855000Y-95320000D03*
X58585000Y-95320000D03*
X57315000Y-95320000D03*
X57315000Y-100700000D03*
X58585000Y-100700000D03*
X59855000Y-100700000D03*
X61125000Y-100700000D03*
%TD*%
D13*
%TO.C,R34*%
X77805000Y-37740000D03*
X79175000Y-37740000D03*
%TD*%
D21*
%TO.C,C143*%
X27563467Y-72273467D03*
X26276533Y-70986533D03*
%TD*%
D15*
%TO.C,R100*%
X57465000Y-90040000D03*
X56095000Y-90040000D03*
%TD*%
D13*
%TO.C,R164*%
X63505000Y-73590000D03*
X64875000Y-73590000D03*
%TD*%
D22*
%TO.C,R142*%
X55060000Y-53375000D03*
X55060000Y-54745000D03*
%TD*%
D15*
%TO.C,R88*%
X83265000Y-103033334D03*
X81895000Y-103033334D03*
%TD*%
D23*
%TO.C,C69*%
X69670000Y-88280000D03*
D24*
X69670000Y-86480000D03*
%TD*%
D15*
%TO.C,R62*%
X83265000Y-57730000D03*
X81895000Y-57730000D03*
%TD*%
D18*
%TO.C,C37*%
X86730000Y-81249998D03*
X88550000Y-81249998D03*
%TD*%
D13*
%TO.C,R140*%
X48095000Y-64510000D03*
X49465000Y-64510000D03*
%TD*%
%TO.C,R161*%
X63525000Y-70640000D03*
X64895000Y-70640000D03*
%TD*%
%TO.C,C122*%
X72355000Y-83570000D03*
X73725000Y-83570000D03*
%TD*%
%TO.C,R170*%
X59865000Y-79940000D03*
X61235000Y-79940000D03*
%TD*%
%TO.C,C116*%
X72285000Y-73380000D03*
X73655000Y-73380000D03*
%TD*%
D16*
%TO.C,CU28_3*%
X19540000Y-54420000D03*
X19540000Y-56240000D03*
%TD*%
D15*
%TO.C,R191*%
X23435000Y-63610000D03*
X22065000Y-63610000D03*
%TD*%
D22*
%TO.C,R25*%
X93660000Y-57125000D03*
X93660000Y-58495000D03*
%TD*%
D15*
%TO.C,R90*%
X83265000Y-101873334D03*
X81895000Y-101873334D03*
%TD*%
D13*
%TO.C,R110*%
X64160000Y-51820000D03*
X65530000Y-51820000D03*
%TD*%
D15*
%TO.C,R22*%
X96360000Y-44825000D03*
X94990000Y-44825000D03*
%TD*%
D25*
%TO.C,CRD0*%
X65790000Y-47820000D03*
X63970000Y-47820000D03*
%TD*%
D16*
%TO.C,C2*%
X95330000Y-61620000D03*
X95330000Y-63440000D03*
%TD*%
D22*
%TO.C,C111*%
X62490000Y-68315000D03*
X62490000Y-69685000D03*
%TD*%
D26*
%TO.C,D19*%
X36660000Y-94817500D03*
X35260000Y-94817500D03*
%TD*%
D13*
%TO.C,C138*%
X25025000Y-65470000D03*
X26395000Y-65470000D03*
%TD*%
D15*
%TO.C,C58*%
X107497500Y-81025000D03*
X106127500Y-81025000D03*
%TD*%
D13*
%TO.C,R174*%
X63435000Y-81260000D03*
X64805000Y-81260000D03*
%TD*%
D20*
%TO.C,U5*%
X83664998Y-77206666D03*
X82395000Y-77206666D03*
X81125000Y-77206666D03*
X79855000Y-77206666D03*
X79855000Y-82586666D03*
X81125000Y-82586666D03*
X82395000Y-82586666D03*
X83665000Y-82586666D03*
%TD*%
%TO.C,U3*%
X91187498Y-96945000D03*
X89917500Y-96945000D03*
X88647500Y-96945000D03*
X87377500Y-96945000D03*
X87377500Y-102325000D03*
X88647500Y-102325000D03*
X89917500Y-102325000D03*
X91187500Y-102325000D03*
%TD*%
D15*
%TO.C,R60*%
X83265000Y-56560000D03*
X81895000Y-56560000D03*
%TD*%
D25*
%TO.C,CU20*%
X62110000Y-26020000D03*
X60290000Y-26020000D03*
%TD*%
D10*
%TO.C,C42*%
X93950000Y-82675000D03*
X93950000Y-81305000D03*
%TD*%
%TO.C,R215*%
X31930000Y-53195000D03*
X31930000Y-51825000D03*
%TD*%
D13*
%TO.C,R137*%
X48105000Y-62570000D03*
X49475000Y-62570000D03*
%TD*%
%TO.C,R87*%
X79645000Y-103043334D03*
X81015000Y-103043334D03*
%TD*%
D27*
%TO.C,R192*%
X28604368Y-64594368D03*
X27635632Y-63625632D03*
%TD*%
D13*
%TO.C,C90*%
X67050000Y-56900000D03*
X68420000Y-56900000D03*
%TD*%
D16*
%TO.C,CU23*%
X27710000Y-55430000D03*
X27710000Y-57250000D03*
%TD*%
D10*
%TO.C,R20*%
X94430000Y-53630000D03*
X94430000Y-52260000D03*
%TD*%
D13*
%TO.C,C113*%
X63535000Y-68260000D03*
X64905000Y-68260000D03*
%TD*%
D15*
%TO.C,R40*%
X88325000Y-93963324D03*
X86955000Y-93963324D03*
%TD*%
D13*
%TO.C,R150*%
X47995000Y-79322651D03*
X49365000Y-79322651D03*
%TD*%
D15*
%TO.C,C66*%
X125735000Y-94680000D03*
X124365000Y-94680000D03*
%TD*%
%TO.C,R80*%
X83265000Y-39663334D03*
X81895000Y-39663334D03*
%TD*%
D13*
%TO.C,R213*%
X40675000Y-37750000D03*
X42045000Y-37750000D03*
%TD*%
%TO.C,C91*%
X72625000Y-53670000D03*
X73995000Y-53670000D03*
%TD*%
D28*
%TO.C,CU10*%
X58930000Y-48160000D03*
X58930000Y-46340000D03*
%TD*%
D13*
%TO.C,R180*%
X72355000Y-82510000D03*
X73725000Y-82510000D03*
%TD*%
D15*
%TO.C,R146*%
X49415000Y-70692651D03*
X48045000Y-70692651D03*
%TD*%
D13*
%TO.C,R163*%
X63485000Y-74840000D03*
X64855000Y-74840000D03*
%TD*%
D22*
%TO.C,R151*%
X54900000Y-68175000D03*
X54900000Y-69545000D03*
%TD*%
D13*
%TO.C,R107*%
X60540000Y-50640000D03*
X61910000Y-50640000D03*
%TD*%
D15*
%TO.C,R78*%
X83265000Y-73456666D03*
X81895000Y-73456666D03*
%TD*%
D22*
%TO.C,R233*%
X29715000Y-75920000D03*
X29715000Y-77290000D03*
%TD*%
D25*
%TO.C,C154*%
X29870000Y-79670000D03*
X28050000Y-79670000D03*
%TD*%
D15*
%TO.C,C32*%
X125695000Y-60730000D03*
X124325000Y-60730000D03*
%TD*%
D13*
%TO.C,R122*%
X64110000Y-60350000D03*
X65480000Y-60350000D03*
%TD*%
%TO.C,R109*%
X64190000Y-50560000D03*
X65560000Y-50560000D03*
%TD*%
D10*
%TO.C,R104*%
X59870000Y-103975000D03*
X59870000Y-102605000D03*
%TD*%
D25*
%TO.C,CU30*%
X32700000Y-59810000D03*
X30880000Y-59810000D03*
%TD*%
D15*
%TO.C,R132*%
X49515000Y-55880000D03*
X48145000Y-55880000D03*
%TD*%
D18*
%TO.C,C16*%
X86515000Y-48152856D03*
X88335000Y-48152856D03*
%TD*%
D15*
%TO.C,R17*%
X88125000Y-55232856D03*
X86755000Y-55232856D03*
%TD*%
D11*
%TO.C,D10*%
X124135000Y-91715000D03*
D12*
X125875000Y-91725000D03*
%TD*%
D13*
%TO.C,R165*%
X63525000Y-69500000D03*
X64895000Y-69500000D03*
%TD*%
D15*
%TO.C,R75*%
X66315000Y-90400000D03*
X64945000Y-90400000D03*
%TD*%
D16*
%TO.C,CU22*%
X38940000Y-66110000D03*
X38940000Y-67930000D03*
%TD*%
D13*
%TO.C,R175*%
X63525000Y-84350000D03*
X64895000Y-84350000D03*
%TD*%
%TO.C,R61*%
X79645000Y-57740000D03*
X81015000Y-57740000D03*
%TD*%
D16*
%TO.C,C137*%
X31110000Y-74680000D03*
X31110000Y-76500000D03*
%TD*%
%TO.C,C108*%
X59260000Y-73040000D03*
X59260000Y-74860000D03*
%TD*%
%TO.C,C107*%
X52470000Y-67950000D03*
X52470000Y-69770000D03*
%TD*%
D13*
%TO.C,R129*%
X72405000Y-62770000D03*
X73775000Y-62770000D03*
%TD*%
D15*
%TO.C,R27*%
X125695000Y-59460000D03*
X124325000Y-59460000D03*
%TD*%
D27*
%TO.C,R194*%
X30034368Y-63104368D03*
X29065632Y-62135632D03*
%TD*%
D28*
%TO.C,C133*%
X33590000Y-62530000D03*
X33590000Y-60710000D03*
%TD*%
D13*
%TO.C,R116*%
X64280000Y-56580000D03*
X65650000Y-56580000D03*
%TD*%
D18*
%TO.C,C82*%
X38000000Y-69070000D03*
X39820000Y-69070000D03*
%TD*%
D22*
%TO.C,R237*%
X25192142Y-75920000D03*
X25192142Y-77290000D03*
%TD*%
D16*
%TO.C,C147*%
X44410000Y-99670000D03*
X44410000Y-101490000D03*
%TD*%
D13*
%TO.C,R128*%
X64200000Y-66370000D03*
X65570000Y-66370000D03*
%TD*%
D11*
%TO.C,D12*%
X124125000Y-74690000D03*
D12*
X125865000Y-74700000D03*
%TD*%
D10*
%TO.C,R187*%
X64140000Y-37985000D03*
X64140000Y-36615000D03*
%TD*%
D15*
%TO.C,C5*%
X88110000Y-43410000D03*
X86740000Y-43410000D03*
%TD*%
D13*
%TO.C,R115*%
X64380000Y-54100000D03*
X65750000Y-54100000D03*
%TD*%
D28*
%TO.C,C97*%
X75070000Y-52180000D03*
X75070000Y-50360000D03*
%TD*%
D11*
%TO.C,D8*%
X125895000Y-39760000D03*
D12*
X124155000Y-39750000D03*
%TD*%
D15*
%TO.C,C41*%
X88325000Y-95030000D03*
X86955000Y-95030000D03*
%TD*%
D18*
%TO.C,C47*%
X86730000Y-91689992D03*
X88550000Y-91689992D03*
%TD*%
D13*
%TO.C,R182*%
X72035000Y-35530000D03*
X73405000Y-35530000D03*
%TD*%
%TO.C,R117*%
X72625000Y-52523332D03*
X73995000Y-52523332D03*
%TD*%
D22*
%TO.C,R190*%
X33610000Y-74895000D03*
X33610000Y-76265000D03*
%TD*%
D11*
%TO.C,D9*%
X124135000Y-100350000D03*
D12*
X125875000Y-100360000D03*
%TD*%
D15*
%TO.C,C34*%
X125695000Y-44570000D03*
X124325000Y-44570000D03*
%TD*%
D28*
%TO.C,C81*%
X85090000Y-41895001D03*
X85090000Y-40075001D03*
%TD*%
D13*
%TO.C,R108*%
X72625000Y-51376666D03*
X73995000Y-51376666D03*
%TD*%
%TO.C,R155*%
X47985000Y-76432651D03*
X49355000Y-76432651D03*
%TD*%
%TO.C,R125*%
X64185000Y-63760000D03*
X65555000Y-63760000D03*
%TD*%
D15*
%TO.C,R9*%
X92195000Y-50030000D03*
X90825000Y-50030000D03*
%TD*%
%TO.C,R29*%
X125705000Y-43150000D03*
X124335000Y-43150000D03*
%TD*%
%TO.C,R32*%
X88325000Y-80043332D03*
X86955000Y-80043332D03*
%TD*%
D13*
%TO.C,R120*%
X60395000Y-64280000D03*
X61765000Y-64280000D03*
%TD*%
D22*
%TO.C,R101*%
X59680000Y-92175000D03*
X59680000Y-93545000D03*
%TD*%
D13*
%TO.C,R63*%
X81895000Y-66990000D03*
X83265000Y-66990000D03*
%TD*%
%TO.C,R166*%
X72285000Y-71160000D03*
X73655000Y-71160000D03*
%TD*%
%TO.C,C20*%
X105990000Y-61725000D03*
X107360000Y-61725000D03*
%TD*%
%TO.C,R179*%
X63535000Y-85520000D03*
X64905000Y-85520000D03*
%TD*%
D16*
%TO.C,C13*%
X92980000Y-61620000D03*
X92980000Y-63440000D03*
%TD*%
D13*
%TO.C,R123*%
X64080000Y-61610000D03*
X65450000Y-61610000D03*
%TD*%
D16*
%TO.C,C43*%
X92880000Y-88920000D03*
X92880000Y-90740000D03*
%TD*%
D13*
%TO.C,R186*%
X25015000Y-66540000D03*
X26385000Y-66540000D03*
%TD*%
%TO.C,R58*%
X79645000Y-58910000D03*
X81015000Y-58910000D03*
%TD*%
D22*
%TO.C,R44*%
X94530000Y-95925000D03*
X94530000Y-97295000D03*
%TD*%
D13*
%TO.C,R119*%
X60365000Y-60680000D03*
X61735000Y-60680000D03*
%TD*%
D15*
%TO.C,R14*%
X88125000Y-59918568D03*
X86755000Y-59918568D03*
%TD*%
D13*
%TO.C,R159*%
X60005000Y-72040000D03*
X61375000Y-72040000D03*
%TD*%
D15*
%TO.C,R152*%
X49365000Y-71852651D03*
X47995000Y-71852651D03*
%TD*%
%TO.C,R229*%
X26300000Y-86230000D03*
X24930000Y-86230000D03*
%TD*%
%TO.C,R235*%
X33065000Y-81470000D03*
X31695000Y-81470000D03*
%TD*%
D13*
%TO.C,R54*%
X79645000Y-69250000D03*
X81015000Y-69250000D03*
%TD*%
D28*
%TO.C,CU8*%
X62420000Y-100790000D03*
X62420000Y-98970000D03*
%TD*%
D11*
%TO.C,D1*%
X124125000Y-66495000D03*
D12*
X125865000Y-66505000D03*
%TD*%
D13*
%TO.C,R177*%
X63485000Y-78760000D03*
X64855000Y-78760000D03*
%TD*%
D10*
%TO.C,C126*%
X57640000Y-39085000D03*
X57640000Y-37715000D03*
%TD*%
D25*
%TO.C,CU18_1*%
X71260000Y-30670000D03*
X69440000Y-30670000D03*
%TD*%
D13*
%TO.C,R82*%
X81895000Y-83886666D03*
X83265000Y-83886666D03*
%TD*%
D20*
%TO.C,U16*%
X70429998Y-69260000D03*
X69160000Y-69260000D03*
X67890000Y-69260000D03*
X66620000Y-69260000D03*
X66620000Y-74640000D03*
X67890000Y-74640000D03*
X69160000Y-74640000D03*
X70430000Y-74640000D03*
%TD*%
D29*
%TO.C,RV2*%
X94077500Y-99122500D03*
D30*
X94942493Y-102817500D03*
D29*
X95814652Y-99127500D03*
%TD*%
D31*
%TO.C,C76*%
X62920000Y-94895000D03*
X62920000Y-91945000D03*
%TD*%
D18*
%TO.C,C141*%
X26180000Y-73600000D03*
X28000000Y-73600000D03*
%TD*%
D11*
%TO.C,LED2*%
X92355000Y-48550000D03*
D12*
X90615000Y-48540000D03*
%TD*%
D25*
%TO.C,CU19_0*%
X60350000Y-44590000D03*
X58530000Y-44590000D03*
%TD*%
D15*
%TO.C,R11*%
X88110000Y-44595714D03*
X86740000Y-44595714D03*
%TD*%
D32*
%TO.C,U26*%
X19640000Y-50320000D03*
X20910000Y-50320000D03*
X22180000Y-50320000D03*
X23450000Y-50320000D03*
X24720000Y-50320000D03*
X25990000Y-50320000D03*
X27260000Y-50320000D03*
X28530000Y-50320000D03*
X29800000Y-50320000D03*
X31070000Y-50320000D03*
X32340000Y-50320000D03*
X33610000Y-50320000D03*
X34880000Y-50320000D03*
X36150000Y-50320000D03*
X38170000Y-46510000D03*
X38170000Y-45240000D03*
X38170000Y-43970000D03*
X38170000Y-42700000D03*
X38170000Y-41430000D03*
X38170000Y-40160000D03*
X38170000Y-38890000D03*
X38170000Y-37620000D03*
X38170000Y-36350000D03*
X38170000Y-35080000D03*
X36140000Y-31280000D03*
X34870000Y-31280000D03*
X33600000Y-31280000D03*
X32330000Y-31280000D03*
X31060000Y-31280000D03*
X29790000Y-31280000D03*
X28520000Y-31280000D03*
X27250000Y-31280000D03*
X25980000Y-31280000D03*
X24710000Y-31280000D03*
X23440000Y-31280000D03*
X22170000Y-31280000D03*
X20900000Y-31280000D03*
X19630000Y-31280000D03*
%TD*%
D15*
%TO.C,C144*%
X23410000Y-64750000D03*
X22040000Y-64750000D03*
%TD*%
D33*
%TO.C,U21*%
X37095000Y-81344349D03*
X38874999Y-81359348D03*
X38875000Y-80214349D03*
X37085000Y-80214349D03*
%TD*%
D15*
%TO.C,R67*%
X83265000Y-86136666D03*
X81895000Y-86136666D03*
%TD*%
D34*
%TO.C,C28*%
X119445000Y-58666666D03*
X112105000Y-58666666D03*
%TD*%
D18*
%TO.C,C18*%
X86530000Y-57575712D03*
X88350000Y-57575712D03*
%TD*%
D15*
%TO.C,C21*%
X107485000Y-47200000D03*
X106115000Y-47200000D03*
%TD*%
D13*
%TO.C,C114*%
X72285000Y-69940000D03*
X73655000Y-69940000D03*
%TD*%
D20*
%TO.C,U11*%
X70944998Y-49880000D03*
X69675000Y-49880000D03*
X68405000Y-49880000D03*
X67135000Y-49880000D03*
X67135000Y-55260000D03*
X68405000Y-55260000D03*
X69675000Y-55260000D03*
X70945000Y-55260000D03*
%TD*%
D13*
%TO.C,C93*%
X72405000Y-60390000D03*
X73775000Y-60390000D03*
%TD*%
D11*
%TO.C,D13*%
X125875000Y-98615000D03*
D12*
X124135000Y-98605000D03*
%TD*%
D16*
%TO.C,C103*%
X74830000Y-98130000D03*
X74830000Y-99950000D03*
%TD*%
D13*
%TO.C,R167*%
X63505000Y-76050000D03*
X64875000Y-76050000D03*
%TD*%
D22*
%TO.C,R36*%
X95142500Y-91810000D03*
X95142500Y-93180000D03*
%TD*%
D15*
%TO.C,R97*%
X83265000Y-91523334D03*
X81895000Y-91523334D03*
%TD*%
D35*
%TO.C,U9*%
X51550000Y-57620000D03*
X51550000Y-58120000D03*
X51550000Y-58620000D03*
X51550000Y-59120000D03*
X51550000Y-59620000D03*
X51550000Y-60120000D03*
X51550000Y-60620000D03*
X51550000Y-61120000D03*
X52350000Y-61920000D03*
X52850000Y-61920000D03*
X53350000Y-61920000D03*
X53850000Y-61920000D03*
X54350000Y-61920000D03*
X54850000Y-61920000D03*
X55350000Y-61920000D03*
X55850000Y-61920000D03*
X56650000Y-61120000D03*
X56650000Y-60620000D03*
X56650000Y-60120000D03*
X56650000Y-59620000D03*
X56650000Y-59120000D03*
X56650000Y-58620000D03*
X56650000Y-58120000D03*
X56650000Y-57620000D03*
X55850000Y-56820000D03*
X55350000Y-56820000D03*
X54850000Y-56820000D03*
X54350000Y-56820000D03*
X53850000Y-56820000D03*
X53350000Y-56820000D03*
X52850000Y-56820000D03*
X52350000Y-56820000D03*
%TD*%
D23*
%TO.C,C70*%
X67320000Y-93910000D03*
D24*
X67320000Y-92110000D03*
%TD*%
D13*
%TO.C,R134*%
X48085000Y-59660000D03*
X49455000Y-59660000D03*
%TD*%
D11*
%TO.C,D7*%
X124125000Y-41470000D03*
D12*
X125865000Y-41480000D03*
%TD*%
D36*
%TO.C,R224*%
X31719368Y-85035632D03*
X30750632Y-86004368D03*
%TD*%
D15*
%TO.C,C35*%
X88325000Y-77910000D03*
X86955000Y-77910000D03*
%TD*%
D13*
%TO.C,R1*%
X79645000Y-42013334D03*
X81015000Y-42013334D03*
%TD*%
%TO.C,C115*%
X66595000Y-76240000D03*
X67965000Y-76240000D03*
%TD*%
D22*
%TO.C,R172*%
X57600000Y-79475000D03*
X57600000Y-80845000D03*
%TD*%
D13*
%TO.C,R144*%
X47985000Y-80282651D03*
X49355000Y-80282651D03*
%TD*%
D15*
%TO.C,R154*%
X49395000Y-69592651D03*
X48025000Y-69592651D03*
%TD*%
%TO.C,C68*%
X125695000Y-77360000D03*
X124325000Y-77360000D03*
%TD*%
%TO.C,R195*%
X56465000Y-30010000D03*
X55095000Y-30010000D03*
%TD*%
D16*
%TO.C,CU4*%
X84530000Y-66680000D03*
X84530000Y-68500000D03*
%TD*%
D13*
%TO.C,R91*%
X79645000Y-92703334D03*
X81015000Y-92703334D03*
%TD*%
D22*
%TO.C,R205*%
X45510000Y-99895000D03*
X45510000Y-101265000D03*
%TD*%
%TO.C,R203*%
X42220000Y-93975000D03*
X42220000Y-95345000D03*
%TD*%
D18*
%TO.C,C104*%
X40560000Y-40330000D03*
X42380000Y-40330000D03*
%TD*%
D37*
%TO.C,D21*%
X43310000Y-95350000D03*
X43310000Y-93950000D03*
%TD*%
D16*
%TO.C,C136*%
X32340000Y-74680000D03*
X32340000Y-76500000D03*
%TD*%
D13*
%TO.C,C120*%
X72355000Y-80130000D03*
X73725000Y-80130000D03*
%TD*%
D10*
%TO.C,C160*%
X24061428Y-77290000D03*
X24061428Y-75920000D03*
%TD*%
D38*
%TO.C,U13*%
X89840000Y-41925001D03*
X90790000Y-41925001D03*
X91740000Y-41925001D03*
X91740000Y-39405001D03*
X90790000Y-39405001D03*
X89840000Y-39405001D03*
%TD*%
D13*
%TO.C,R56*%
X79645000Y-68100000D03*
X81015000Y-68100000D03*
%TD*%
D39*
%TO.C,D18*%
X49205000Y-25867499D03*
D40*
X49195000Y-27607499D03*
%TD*%
D13*
%TO.C,C19*%
X105990000Y-60450000D03*
X107360000Y-60450000D03*
%TD*%
D34*
%TO.C,C61*%
X119457500Y-100825000D03*
X112117500Y-100825000D03*
%TD*%
D13*
%TO.C,R178*%
X72355000Y-81350000D03*
X73725000Y-81350000D03*
%TD*%
%TO.C,C139*%
X25045000Y-64380000D03*
X26415000Y-64380000D03*
%TD*%
D10*
%TO.C,R47*%
X94490000Y-87515000D03*
X94490000Y-86145000D03*
%TD*%
%TO.C,R200*%
X94200000Y-41940001D03*
X94200000Y-40570001D03*
%TD*%
D15*
%TO.C,R3*%
X83265000Y-52343334D03*
X81895000Y-52343334D03*
%TD*%
D13*
%TO.C,R89*%
X79645000Y-101893334D03*
X81015000Y-101893334D03*
%TD*%
%TO.C,C88*%
X68325000Y-48050000D03*
X69695000Y-48050000D03*
%TD*%
%TO.C,R106*%
X60500000Y-51790000D03*
X61870000Y-51790000D03*
%TD*%
%TO.C,R138*%
X48085000Y-60640000D03*
X49455000Y-60640000D03*
%TD*%
D37*
%TO.C,D22*%
X43310000Y-101280000D03*
X43310000Y-99880000D03*
%TD*%
D15*
%TO.C,R69*%
X83265000Y-84976666D03*
X81895000Y-84976666D03*
%TD*%
D13*
%TO.C,R121*%
X60410000Y-63100000D03*
X61780000Y-63100000D03*
%TD*%
D16*
%TO.C,C51*%
X93370000Y-85780000D03*
X93370000Y-87600000D03*
%TD*%
D28*
%TO.C,CU3*%
X86172500Y-99625000D03*
X86172500Y-97805000D03*
%TD*%
D41*
%TO.C,U23*%
X25785000Y-54720000D03*
X25785000Y-54130000D03*
X25785000Y-53530000D03*
X25785000Y-52920000D03*
X25785000Y-52320000D03*
X21945000Y-52330000D03*
X21945000Y-52930000D03*
X21945000Y-53530000D03*
X21945000Y-54130000D03*
X21945000Y-54730000D03*
%TD*%
D13*
%TO.C,R4*%
X79645000Y-50103334D03*
X81015000Y-50103334D03*
%TD*%
D18*
%TO.C,CRP1*%
X79022500Y-71420000D03*
X80842500Y-71420000D03*
%TD*%
D28*
%TO.C,C96*%
X75130000Y-45030000D03*
X75130000Y-43210000D03*
%TD*%
D15*
%TO.C,R246*%
X42015000Y-48530000D03*
X40645000Y-48530000D03*
%TD*%
D13*
%TO.C,R118*%
X60405000Y-59530000D03*
X61775000Y-59530000D03*
%TD*%
D10*
%TO.C,C89*%
X63155000Y-55480000D03*
X63155000Y-54110000D03*
%TD*%
D13*
%TO.C,R153*%
X47985000Y-75452651D03*
X49355000Y-75452651D03*
%TD*%
D15*
%TO.C,R50*%
X125735000Y-93470000D03*
X124365000Y-93470000D03*
%TD*%
D11*
%TO.C,LED1*%
X92355000Y-44405000D03*
D12*
X90615000Y-44395000D03*
%TD*%
D13*
%TO.C,R59*%
X79645000Y-56570000D03*
X81015000Y-56570000D03*
%TD*%
%TO.C,R6*%
X81895000Y-50093334D03*
X83265000Y-50093334D03*
%TD*%
%TO.C,C95*%
X72405000Y-63830000D03*
X73775000Y-63830000D03*
%TD*%
D25*
%TO.C,C80*%
X88459999Y-38225001D03*
X86639999Y-38225001D03*
%TD*%
D34*
%TO.C,C27*%
X119445000Y-67000000D03*
X112105000Y-67000000D03*
%TD*%
D13*
%TO.C,R113*%
X60500000Y-54190000D03*
X61870000Y-54190000D03*
%TD*%
%TO.C,R141*%
X48085000Y-65470000D03*
X49455000Y-65470000D03*
%TD*%
D20*
%TO.C,U4*%
X83664998Y-60310000D03*
X82395000Y-60310000D03*
X81125000Y-60310000D03*
X79855000Y-60310000D03*
X79855000Y-65690000D03*
X81125000Y-65690000D03*
X82395000Y-65690000D03*
X83665000Y-65690000D03*
%TD*%
D38*
%TO.C,U25*%
X55200000Y-28305000D03*
X56150000Y-28305000D03*
X57100000Y-28305000D03*
X57100000Y-25785000D03*
X55200000Y-25785000D03*
%TD*%
D15*
%TO.C,R45*%
X95685000Y-78540000D03*
X94315000Y-78540000D03*
%TD*%
%TO.C,C8*%
X88110000Y-51710000D03*
X86740000Y-51710000D03*
%TD*%
D13*
%TO.C,C94*%
X67055000Y-67110000D03*
X68425000Y-67110000D03*
%TD*%
D15*
%TO.C,C67*%
X125755000Y-86210000D03*
X124385000Y-86210000D03*
%TD*%
D13*
%TO.C,R77*%
X79645000Y-73466666D03*
X81015000Y-73466666D03*
%TD*%
D42*
%TO.C,D17*%
X66530000Y-88720000D03*
X66530000Y-86220000D03*
%TD*%
D43*
%TO.C,R197*%
X34985632Y-62155632D03*
X35954368Y-63124368D03*
%TD*%
D35*
%TO.C,U14*%
X51450000Y-72432651D03*
X51450000Y-72932651D03*
X51450000Y-73432651D03*
X51450000Y-73932651D03*
X51450000Y-74432651D03*
X51450000Y-74932651D03*
X51450000Y-75432651D03*
X51450000Y-75932651D03*
X52250000Y-76732651D03*
X52750000Y-76732651D03*
X53250000Y-76732651D03*
X53750000Y-76732651D03*
X54250000Y-76732651D03*
X54750000Y-76732651D03*
X55250000Y-76732651D03*
X55750000Y-76732651D03*
X56550000Y-75932651D03*
X56550000Y-75432651D03*
X56550000Y-74932651D03*
X56550000Y-74432651D03*
X56550000Y-73932651D03*
X56550000Y-73432651D03*
X56550000Y-72932651D03*
X56550000Y-72432651D03*
X55750000Y-71632651D03*
X55250000Y-71632651D03*
X54750000Y-71632651D03*
X54250000Y-71632651D03*
X53750000Y-71632651D03*
X53250000Y-71632651D03*
X52750000Y-71632651D03*
X52250000Y-71632651D03*
%TD*%
D43*
%TO.C,C140*%
X31491264Y-61631264D03*
X32460000Y-62600000D03*
%TD*%
D13*
%TO.C,R157*%
X59995000Y-68440000D03*
X61365000Y-68440000D03*
%TD*%
D15*
%TO.C,C40*%
X88325000Y-87003328D03*
X86955000Y-87003328D03*
%TD*%
D13*
%TO.C,R209*%
X37235000Y-71480000D03*
X38605000Y-71480000D03*
%TD*%
D15*
%TO.C,R12*%
X88110000Y-50524284D03*
X86740000Y-50524284D03*
%TD*%
D18*
%TO.C,C17*%
X86530000Y-56404284D03*
X88350000Y-56404284D03*
%TD*%
D13*
%TO.C,R92*%
X79645000Y-40843334D03*
X81015000Y-40843334D03*
%TD*%
D28*
%TO.C,CU978*%
X53920000Y-54930000D03*
X53920000Y-53110000D03*
%TD*%
D10*
%TO.C,R232*%
X28320000Y-87645000D03*
X28320000Y-86275000D03*
%TD*%
D27*
%TO.C,R198*%
X36369368Y-65074368D03*
X35400632Y-64105632D03*
%TD*%
D22*
%TO.C,R24*%
X94820000Y-57975000D03*
X94820000Y-59345000D03*
%TD*%
%TO.C,R171*%
X56480000Y-79495000D03*
X56480000Y-80865000D03*
%TD*%
%TO.C,R73*%
X69120000Y-92225000D03*
X69120000Y-93595000D03*
%TD*%
D13*
%TO.C,R149*%
X47985000Y-74472651D03*
X49355000Y-74472651D03*
%TD*%
%TO.C,R221*%
X47995000Y-72922651D03*
X49365000Y-72922651D03*
%TD*%
D16*
%TO.C,C48*%
X95940000Y-95650000D03*
X95940000Y-97470000D03*
%TD*%
%TO.C,C11*%
X92120000Y-52035000D03*
X92120000Y-53855000D03*
%TD*%
D13*
%TO.C,R86*%
X79645000Y-100793334D03*
X81015000Y-100793334D03*
%TD*%
D15*
%TO.C,R183*%
X69555000Y-43780000D03*
X68185000Y-43780000D03*
%TD*%
D28*
%TO.C,CU28_4*%
X19560000Y-53720000D03*
X19560000Y-51900000D03*
%TD*%
D10*
%TO.C,C112*%
X62270000Y-74915000D03*
X62270000Y-73545000D03*
%TD*%
D22*
%TO.C,C117*%
X62370000Y-78635000D03*
X62370000Y-80005000D03*
%TD*%
D20*
%TO.C,U15*%
X19540002Y-71980000D03*
X20810000Y-71980000D03*
X22080000Y-71980000D03*
X23350000Y-71980000D03*
X23350000Y-66600000D03*
X22080000Y-66600000D03*
X20810000Y-66600000D03*
X19540000Y-66600000D03*
%TD*%
D18*
%TO.C,C38*%
X86730000Y-82596664D03*
X88550000Y-82596664D03*
%TD*%
D42*
%TO.C,D23*%
X57120000Y-88220000D03*
X57120000Y-85720000D03*
%TD*%
D29*
%TO.C,RV1*%
X93490003Y-65090000D03*
D30*
X94354996Y-68785000D03*
D29*
X95227155Y-65095000D03*
%TD*%
D15*
%TO.C,R236*%
X36675000Y-98440000D03*
X35305000Y-98440000D03*
%TD*%
D44*
%TO.C,Q1*%
X37620000Y-64230000D03*
X38568744Y-61908756D03*
X39520000Y-64230000D03*
%TD*%
D20*
%TO.C,U12*%
X70864998Y-59670000D03*
X69595000Y-59670000D03*
X68325000Y-59670000D03*
X67055000Y-59670000D03*
X67055000Y-65050000D03*
X68325000Y-65050000D03*
X69595000Y-65050000D03*
X70865000Y-65050000D03*
%TD*%
D22*
%TO.C,R202*%
X45520000Y-93965000D03*
X45520000Y-95335000D03*
%TD*%
D34*
%TO.C,C62*%
X119457500Y-92491666D03*
X112117500Y-92491666D03*
%TD*%
D10*
%TO.C,C50*%
X92640000Y-103465000D03*
X92640000Y-102095000D03*
%TD*%
D13*
%TO.C,C86*%
X72625000Y-50230000D03*
X73995000Y-50230000D03*
%TD*%
D22*
%TO.C,C156*%
X29560000Y-86325000D03*
X29560000Y-87695000D03*
%TD*%
D20*
%TO.C,U7*%
X70164998Y-95480000D03*
X68895000Y-95480000D03*
X67625000Y-95480000D03*
X66355000Y-95480000D03*
X66355000Y-100860000D03*
X67625000Y-100860000D03*
X68895000Y-100860000D03*
X70165000Y-100860000D03*
%TD*%
D15*
%TO.C,R206*%
X49825000Y-100150000D03*
X48455000Y-100150000D03*
%TD*%
D13*
%TO.C,R68*%
X79645000Y-84996666D03*
X81015000Y-84996666D03*
%TD*%
D22*
%TO.C,C148*%
X46670000Y-99895000D03*
X46670000Y-101265000D03*
%TD*%
D28*
%TO.C,CU1*%
X84930000Y-48810000D03*
X84930000Y-46990000D03*
%TD*%
D10*
%TO.C,C3*%
X94060000Y-48435000D03*
X94060000Y-47065000D03*
%TD*%
D13*
%TO.C,R220*%
X48095000Y-58110000D03*
X49465000Y-58110000D03*
%TD*%
D18*
%TO.C,CU9*%
X71900000Y-65550000D03*
X73720000Y-65550000D03*
%TD*%
%TO.C,C15*%
X86515000Y-46967142D03*
X88335000Y-46967142D03*
%TD*%
D15*
%TO.C,R39*%
X88325000Y-88069994D03*
X86955000Y-88069994D03*
%TD*%
D18*
%TO.C,CU11*%
X72400000Y-55270000D03*
X74220000Y-55270000D03*
%TD*%
D45*
%TO.C,C59*%
X106337500Y-89925000D03*
X109287500Y-89925000D03*
%TD*%
D13*
%TO.C,R76*%
X79645000Y-39673334D03*
X81015000Y-39673334D03*
%TD*%
%TO.C,R185*%
X37805000Y-65090000D03*
X39175000Y-65090000D03*
%TD*%
%TO.C,C57*%
X106002500Y-95550000D03*
X107372500Y-95550000D03*
%TD*%
D10*
%TO.C,R71*%
X67670000Y-103785000D03*
X67670000Y-102415000D03*
%TD*%
D13*
%TO.C,C54*%
X106002500Y-94275000D03*
X107372500Y-94275000D03*
%TD*%
D28*
%TO.C,CU2*%
X85780003Y-65650000D03*
X85780003Y-63830000D03*
%TD*%
D20*
%TO.C,U18*%
X66855002Y-42360000D03*
X68125000Y-42360000D03*
X69395000Y-42360000D03*
X70665000Y-42360000D03*
X70665000Y-36980000D03*
X69395000Y-36980000D03*
X68125000Y-36980000D03*
X66855000Y-36980000D03*
%TD*%
D15*
%TO.C,R15*%
X88110000Y-45781428D03*
X86740000Y-45781428D03*
%TD*%
D10*
%TO.C,R103*%
X58540000Y-104045000D03*
X58540000Y-102675000D03*
%TD*%
%TO.C,R216*%
X33560000Y-53170000D03*
X33560000Y-51800000D03*
%TD*%
D15*
%TO.C,R240*%
X91755000Y-38135001D03*
X90385000Y-38135001D03*
%TD*%
%TO.C,R148*%
X49395000Y-68362651D03*
X48025000Y-68362651D03*
%TD*%
D13*
%TO.C,C92*%
X68405000Y-58070000D03*
X69775000Y-58070000D03*
%TD*%
D15*
%TO.C,C124*%
X69665000Y-34150000D03*
X68295000Y-34150000D03*
%TD*%
D10*
%TO.C,C9*%
X92180003Y-69705000D03*
X92180003Y-68335000D03*
%TD*%
D46*
%TO.C,Q4*%
X88510000Y-39695001D03*
X87561256Y-42016245D03*
X86610000Y-39695001D03*
%TD*%
D15*
%TO.C,R130*%
X49495000Y-53550000D03*
X48125000Y-53550000D03*
%TD*%
D10*
%TO.C,R21*%
X90960000Y-53630000D03*
X90960000Y-52260000D03*
%TD*%
D15*
%TO.C,C7*%
X88125000Y-61090000D03*
X86755000Y-61090000D03*
%TD*%
D47*
%TO.C,C26*%
X101900000Y-51675000D03*
X101900000Y-48725000D03*
%TD*%
D13*
%TO.C,R169*%
X59865000Y-78715000D03*
X61235000Y-78715000D03*
%TD*%
%TO.C,R176*%
X63545000Y-83230000D03*
X64915000Y-83230000D03*
%TD*%
%TO.C,R112*%
X60550000Y-55360000D03*
X61920000Y-55360000D03*
%TD*%
D16*
%TO.C,C101*%
X75060000Y-90840000D03*
X75060000Y-92660000D03*
%TD*%
D15*
%TO.C,R30*%
X88325000Y-78976666D03*
X86955000Y-78976666D03*
%TD*%
D13*
%TO.C,R66*%
X79645000Y-86146666D03*
X81015000Y-86146666D03*
%TD*%
D45*
%TO.C,C25*%
X106325000Y-56100000D03*
X109275000Y-56100000D03*
%TD*%
D10*
%TO.C,R74*%
X70290000Y-93545000D03*
X70290000Y-92175000D03*
%TD*%
D16*
%TO.C,C77*%
X59010000Y-58000000D03*
X59010000Y-59820000D03*
%TD*%
D13*
%TO.C,R135*%
X48125000Y-52410000D03*
X49495000Y-52410000D03*
%TD*%
D20*
%TO.C,U19*%
X58745002Y-43230000D03*
X60015000Y-43230000D03*
X61285000Y-43230000D03*
X62555000Y-43230000D03*
X62555000Y-37850000D03*
X61285000Y-37850000D03*
X60015000Y-37850000D03*
X58745000Y-37850000D03*
%TD*%
D13*
%TO.C,R105*%
X60425000Y-65490000D03*
X61795000Y-65490000D03*
%TD*%
D10*
%TO.C,C158*%
X28584284Y-77290000D03*
X28584284Y-75920000D03*
%TD*%
D22*
%TO.C,R23*%
X94140000Y-61855000D03*
X94140000Y-63225000D03*
%TD*%
D15*
%TO.C,R219*%
X29395000Y-53310000D03*
X28025000Y-53310000D03*
%TD*%
D13*
%TO.C,R127*%
X72405000Y-61610000D03*
X73775000Y-61610000D03*
%TD*%
D48*
%TO.C,C53*%
X101812500Y-90950000D03*
X101812500Y-93900000D03*
%TD*%
D10*
%TO.C,C73*%
X58370000Y-87665000D03*
X58370000Y-86295000D03*
%TD*%
D13*
%TO.C,R79*%
X79645000Y-74636666D03*
X81015000Y-74636666D03*
%TD*%
D11*
%TO.C,D16*%
X125895000Y-72965000D03*
D12*
X124155000Y-72955000D03*
%TD*%
D18*
%TO.C,CU17*%
X71920000Y-85340000D03*
X73740000Y-85340000D03*
%TD*%
D34*
%TO.C,C63*%
X119457500Y-84158333D03*
X112117500Y-84158333D03*
%TD*%
D13*
%TO.C,C155*%
X28265000Y-80830000D03*
X29635000Y-80830000D03*
%TD*%
D22*
%TO.C,R38*%
X94082500Y-91090000D03*
X94082500Y-92460000D03*
%TD*%
D15*
%TO.C,R55*%
X83265000Y-69240000D03*
X81895000Y-69240000D03*
%TD*%
D13*
%TO.C,R143*%
X47985000Y-78372651D03*
X49355000Y-78372651D03*
%TD*%
D10*
%TO.C,C71*%
X67750000Y-88155000D03*
X67750000Y-86785000D03*
%TD*%
D18*
%TO.C,C46*%
X86730000Y-90343326D03*
X88550000Y-90343326D03*
%TD*%
D13*
%TO.C,R53*%
X79645000Y-67000000D03*
X81015000Y-67000000D03*
%TD*%
D49*
%TO.C,CU18_2*%
X73655000Y-28855000D03*
X73655000Y-31805000D03*
%TD*%
D13*
%TO.C,R225*%
X31655000Y-82680000D03*
X33025000Y-82680000D03*
%TD*%
%TO.C,R5*%
X79645000Y-52353334D03*
X81015000Y-52353334D03*
%TD*%
D19*
%TO.C,C130*%
X59715000Y-29365000D03*
X62665000Y-29365000D03*
%TD*%
D10*
%TO.C,R188*%
X65150000Y-41385000D03*
X65150000Y-40015000D03*
%TD*%
D22*
%TO.C,C84*%
X62800000Y-59455000D03*
X62800000Y-60825000D03*
%TD*%
D17*
%TO.C,Q2*%
X42500000Y-36560000D03*
X40178756Y-35611256D03*
X42500000Y-34660000D03*
%TD*%
D11*
%TO.C,D15*%
X125975000Y-81585000D03*
D12*
X124235000Y-81575000D03*
%TD*%
D15*
%TO.C,R93*%
X83265000Y-40833334D03*
X81895000Y-40833334D03*
%TD*%
D28*
%TO.C,C98*%
X75070000Y-61740000D03*
X75070000Y-59920000D03*
%TD*%
D15*
%TO.C,R26*%
X125695000Y-68120000D03*
X124325000Y-68120000D03*
%TD*%
D28*
%TO.C,C157*%
X26200000Y-83010000D03*
X26200000Y-81190000D03*
%TD*%
D10*
%TO.C,R46*%
X92630000Y-100625000D03*
X92630000Y-99255000D03*
%TD*%
D15*
%TO.C,R35*%
X92225000Y-84360000D03*
X90855000Y-84360000D03*
%TD*%
D16*
%TO.C,C83*%
X52540000Y-53130000D03*
X52540000Y-54950000D03*
%TD*%
D13*
%TO.C,R2*%
X81895000Y-41993334D03*
X83265000Y-41993334D03*
%TD*%
%TO.C,R136*%
X48085000Y-61620000D03*
X49455000Y-61620000D03*
%TD*%
%TO.C,R84*%
X79645000Y-51203334D03*
X81015000Y-51203334D03*
%TD*%
%TO.C,R230*%
X24910000Y-85140000D03*
X26280000Y-85140000D03*
%TD*%
D16*
%TO.C,CR0*%
X90170003Y-69450000D03*
X90170003Y-71270000D03*
%TD*%
D11*
%TO.C,D14*%
X125885000Y-89995000D03*
D12*
X124145000Y-89985000D03*
%TD*%
D19*
%TO.C,C129*%
X59675000Y-31245000D03*
X62625000Y-31245000D03*
%TD*%
D15*
%TO.C,R33*%
X88325000Y-83803330D03*
X86955000Y-83803330D03*
%TD*%
D13*
%TO.C,R162*%
X63505000Y-71740000D03*
X64875000Y-71740000D03*
%TD*%
D15*
%TO.C,C65*%
X125745000Y-103230000D03*
X124375000Y-103230000D03*
%TD*%
D10*
%TO.C,R102*%
X61030000Y-93585000D03*
X61030000Y-92215000D03*
%TD*%
D18*
%TO.C,CRP2*%
X78982500Y-88290000D03*
X80802500Y-88290000D03*
%TD*%
D15*
%TO.C,R210*%
X42025000Y-38920000D03*
X40655000Y-38920000D03*
%TD*%
D31*
%TO.C,C72*%
X72000000Y-95315000D03*
X72000000Y-92365000D03*
%TD*%
D13*
%TO.C,R147*%
X48005000Y-77382651D03*
X49375000Y-77382651D03*
%TD*%
%TO.C,R8*%
X90785000Y-47050000D03*
X92155000Y-47050000D03*
%TD*%
D47*
%TO.C,C60*%
X101912500Y-85500000D03*
X101912500Y-82550000D03*
%TD*%
D16*
%TO.C,CU5*%
X84550000Y-83480000D03*
X84550000Y-85300000D03*
%TD*%
D15*
%TO.C,R16*%
X88110000Y-49338570D03*
X86740000Y-49338570D03*
%TD*%
%TO.C,R52*%
X125695000Y-76140000D03*
X124325000Y-76140000D03*
%TD*%
%TO.C,R231*%
X26240000Y-84010000D03*
X24870000Y-84010000D03*
%TD*%
D23*
%TO.C,C74*%
X61770000Y-88040000D03*
D24*
X61770000Y-86240000D03*
%TD*%
D22*
%TO.C,R214*%
X37560000Y-29675000D03*
X37560000Y-31045000D03*
%TD*%
D13*
%TO.C,R96*%
X79645000Y-91533334D03*
X81015000Y-91533334D03*
%TD*%
D22*
%TO.C,C145*%
X46680000Y-93995000D03*
X46680000Y-95365000D03*
%TD*%
D15*
%TO.C,R41*%
X88325000Y-89136660D03*
X86955000Y-89136660D03*
%TD*%
D25*
%TO.C,C49*%
X95900000Y-79840000D03*
X94080000Y-79840000D03*
%TD*%
D15*
%TO.C,R234*%
X33005000Y-83850000D03*
X31635000Y-83850000D03*
%TD*%
D13*
%TO.C,R228*%
X24955000Y-87410000D03*
X26325000Y-87410000D03*
%TD*%
D10*
%TO.C,R207*%
X40690000Y-80565000D03*
X40690000Y-79195000D03*
%TD*%
D13*
%TO.C,R160*%
X60005000Y-70870000D03*
X61375000Y-70870000D03*
%TD*%
D22*
%TO.C,R242*%
X59870000Y-86325000D03*
X59870000Y-87695000D03*
%TD*%
D13*
%TO.C,R126*%
X64145000Y-59080000D03*
X65515000Y-59080000D03*
%TD*%
D15*
%TO.C,R49*%
X125725000Y-101920000D03*
X124355000Y-101920000D03*
%TD*%
%TO.C,R28*%
X125695000Y-51340000D03*
X124325000Y-51340000D03*
%TD*%
D10*
%TO.C,R181*%
X72090000Y-38625000D03*
X72090000Y-37255000D03*
%TD*%
D15*
%TO.C,C123*%
X68205000Y-35350000D03*
X66835000Y-35350000D03*
%TD*%
D35*
%TO.C,U29*%
X29790000Y-81990000D03*
X29290000Y-81990000D03*
X28790000Y-81990000D03*
X28290000Y-81990000D03*
X27460000Y-82820000D03*
X27460000Y-83320000D03*
X27460000Y-83820000D03*
X27460000Y-84320000D03*
X28290000Y-85160000D03*
X28790000Y-85160000D03*
X29290000Y-85160000D03*
X29790000Y-85160000D03*
X30630000Y-84320000D03*
X30630000Y-83820000D03*
X30630000Y-83320000D03*
X30630000Y-82820000D03*
%TD*%
D11*
%TO.C,LED5*%
X40475000Y-43765000D03*
D12*
X42215000Y-43775000D03*
%TD*%
D18*
%TO.C,C79*%
X57920000Y-61940000D03*
X59740000Y-61940000D03*
%TD*%
D50*
%TO.C,U10*%
X53947500Y-48250000D03*
X55447500Y-48250000D03*
D51*
X55447500Y-44620000D03*
D50*
X56947500Y-48250000D03*
%TD*%
D52*
%TO.C,D24*%
X124090000Y-28840000D03*
X124090000Y-33140000D03*
%TD*%
D18*
%TO.C,CRB1*%
X63430000Y-87900000D03*
X65250000Y-87900000D03*
%TD*%
D10*
%TO.C,R48*%
X90990000Y-87455000D03*
X90990000Y-86085000D03*
%TD*%
D15*
%TO.C,R95*%
X83265000Y-90353334D03*
X81895000Y-90353334D03*
%TD*%
D13*
%TO.C,R10*%
X64765000Y-30070000D03*
X66135000Y-30070000D03*
%TD*%
D27*
%TO.C,R193*%
X29364368Y-63864368D03*
X28395632Y-62895632D03*
%TD*%
D28*
%TO.C,CRB0*%
X65170000Y-100810000D03*
X65170000Y-98990000D03*
%TD*%
D22*
%TO.C,R238*%
X22930714Y-75920000D03*
X22930714Y-77290000D03*
%TD*%
D15*
%TO.C,C22*%
X107385000Y-48600000D03*
X106015000Y-48600000D03*
%TD*%
D13*
%TO.C,R226*%
X31695000Y-79840000D03*
X33065000Y-79840000D03*
%TD*%
D45*
%TO.C,C24*%
X106325000Y-52900000D03*
X109275000Y-52900000D03*
%TD*%
D13*
%TO.C,R208*%
X37225000Y-72500000D03*
X38595000Y-72500000D03*
%TD*%
D16*
%TO.C,C52*%
X92170000Y-85760000D03*
X92170000Y-87580000D03*
%TD*%
%TO.C,CR1*%
X90510000Y-103550000D03*
X90510000Y-105370000D03*
%TD*%
D13*
%TO.C,R65*%
X79645000Y-83896666D03*
X81015000Y-83896666D03*
%TD*%
D15*
%TO.C,R13*%
X88125000Y-54061428D03*
X86755000Y-54061428D03*
%TD*%
D16*
%TO.C,CU19_1*%
X65440000Y-36420000D03*
X65440000Y-38240000D03*
%TD*%
D13*
%TO.C,R70*%
X79645000Y-75806666D03*
X81015000Y-75806666D03*
%TD*%
D10*
%TO.C,C118*%
X62400000Y-83770000D03*
X62400000Y-82400000D03*
%TD*%
D15*
%TO.C,R85*%
X83265000Y-51183334D03*
X81895000Y-51183334D03*
%TD*%
D22*
%TO.C,C12*%
X96240000Y-52285000D03*
X96240000Y-53655000D03*
%TD*%
D25*
%TO.C,CRD1*%
X65840000Y-57800000D03*
X64020000Y-57800000D03*
%TD*%
D34*
%TO.C,C64*%
X119457500Y-75825000D03*
X112117500Y-75825000D03*
%TD*%
D10*
%TO.C,R72*%
X68810000Y-103765000D03*
X68810000Y-102395000D03*
%TD*%
D19*
%TO.C,C131*%
X62665000Y-27415000D03*
X59715000Y-27415000D03*
%TD*%
D53*
%TO.C,L10*%
X62480000Y-34470000D03*
X58760000Y-34470000D03*
%TD*%
D11*
%TO.C,LED4*%
X92345000Y-78695000D03*
D12*
X90605000Y-78685000D03*
%TD*%
D15*
%TO.C,R201*%
X49835000Y-94950000D03*
X48465000Y-94950000D03*
%TD*%
D22*
%TO.C,C87*%
X62935000Y-50565000D03*
X62935000Y-51935000D03*
%TD*%
D10*
%TO.C,C159*%
X26322856Y-77290000D03*
X26322856Y-75920000D03*
%TD*%
D15*
%TO.C,R51*%
X125795000Y-84910000D03*
X124425000Y-84910000D03*
%TD*%
D54*
%TO.C,U22*%
X33497584Y-73744600D03*
X33844066Y-73391047D03*
X34197620Y-73037494D03*
X34551173Y-72683940D03*
X34904727Y-72330387D03*
X35258280Y-71976833D03*
X35611833Y-71623280D03*
X35965387Y-71269727D03*
X36318940Y-70916173D03*
X36672494Y-70562620D03*
X37026047Y-70209066D03*
X37379600Y-69855513D03*
D55*
X37379600Y-67564487D03*
X37026047Y-67210934D03*
X36672494Y-66857380D03*
X36318940Y-66503827D03*
X35965387Y-66150273D03*
X35611833Y-65796720D03*
X35258280Y-65443167D03*
X34904727Y-65089613D03*
X34551173Y-64736060D03*
X34197620Y-64382506D03*
X33844066Y-64028953D03*
X33490513Y-63675400D03*
D54*
X31199487Y-63675400D03*
X30845934Y-64028953D03*
X30492380Y-64382506D03*
X30138827Y-64736060D03*
X29785273Y-65089613D03*
X29431720Y-65443167D03*
X29078167Y-65796720D03*
X28724613Y-66150273D03*
X28371060Y-66503827D03*
X28017506Y-66857380D03*
X27663953Y-67210934D03*
X27310400Y-67564487D03*
D55*
X27296258Y-69869655D03*
X27649811Y-70223209D03*
X28003364Y-70576762D03*
X28356918Y-70930315D03*
X28710471Y-71283869D03*
X29064025Y-71637422D03*
X29417578Y-71990975D03*
X29771131Y-72344529D03*
X30124685Y-72698082D03*
X30478238Y-73051636D03*
X30831791Y-73405189D03*
X31185345Y-73758742D03*
%TD*%
D15*
%TO.C,R31*%
X88325000Y-84869996D03*
X86955000Y-84869996D03*
%TD*%
%TO.C,R57*%
X83265000Y-68080000D03*
X81895000Y-68080000D03*
%TD*%
%TO.C,R42*%
X88325000Y-92896658D03*
X86955000Y-92896658D03*
%TD*%
D28*
%TO.C,CU21*%
X35450000Y-81440000D03*
X35450000Y-79620000D03*
%TD*%
D16*
%TO.C,CU6*%
X84560000Y-100430000D03*
X84560000Y-102250000D03*
%TD*%
%TO.C,C146*%
X44380000Y-93740000D03*
X44380000Y-95560000D03*
%TD*%
D15*
%TO.C,R212*%
X42035000Y-33350000D03*
X40665000Y-33350000D03*
%TD*%
D11*
%TO.C,D4*%
X125895000Y-56270000D03*
D12*
X124155000Y-56260000D03*
%TD*%
D22*
%TO.C,R204*%
X42262500Y-99895000D03*
X42262500Y-101265000D03*
%TD*%
D20*
%TO.C,U2*%
X90795001Y-63120000D03*
X89525003Y-63120000D03*
X88255003Y-63120000D03*
X86985003Y-63120000D03*
X86985003Y-68500000D03*
X88255003Y-68500000D03*
X89525003Y-68500000D03*
X90795003Y-68500000D03*
%TD*%
D15*
%TO.C,R245*%
X42035000Y-45300000D03*
X40665000Y-45300000D03*
%TD*%
D28*
%TO.C,CU14*%
X53770000Y-69770000D03*
X53770000Y-67950000D03*
%TD*%
D45*
%TO.C,C56*%
X106337500Y-86725000D03*
X109287500Y-86725000D03*
%TD*%
D28*
%TO.C,CU7*%
X71530000Y-100740000D03*
X71530000Y-98920000D03*
%TD*%
D10*
%TO.C,R19*%
X92180003Y-66825000D03*
X92180003Y-65455000D03*
%TD*%
D11*
%TO.C,D3*%
X124125000Y-57960000D03*
D12*
X125865000Y-57970000D03*
%TD*%
D25*
%TO.C,CRD3*%
X65060000Y-77540000D03*
X63240000Y-77540000D03*
%TD*%
D16*
%TO.C,C10*%
X93270000Y-52035000D03*
X93270000Y-53855000D03*
%TD*%
D22*
%TO.C,C45*%
X96142500Y-86080000D03*
X96142500Y-87450000D03*
%TD*%
D13*
%TO.C,R64*%
X81895000Y-58890000D03*
X83265000Y-58890000D03*
%TD*%
D11*
%TO.C,D2*%
X125895000Y-64775000D03*
D12*
X124155000Y-64765000D03*
%TD*%
D13*
%TO.C,R145*%
X48065000Y-67182651D03*
X49435000Y-67182651D03*
%TD*%
D16*
%TO.C,C44*%
X93160000Y-95730000D03*
X93160000Y-97550000D03*
%TD*%
D10*
%TO.C,R217*%
X34850000Y-53125000D03*
X34850000Y-51755000D03*
%TD*%
%TO.C,C161*%
X21800000Y-77290000D03*
X21800000Y-75920000D03*
%TD*%
D18*
%TO.C,CU15*%
X71690000Y-74970000D03*
X73510000Y-74970000D03*
%TD*%
D20*
%TO.C,U17*%
X70219998Y-79320000D03*
X68950000Y-79320000D03*
X67680000Y-79320000D03*
X66410000Y-79320000D03*
X66410000Y-84700000D03*
X67680000Y-84700000D03*
X68950000Y-84700000D03*
X70220000Y-84700000D03*
%TD*%
D15*
%TO.C,C55*%
X107397500Y-82425000D03*
X106027500Y-82425000D03*
%TD*%
%TO.C,R239*%
X34505000Y-86040000D03*
X33135000Y-86040000D03*
%TD*%
D16*
%TO.C,C100*%
X75080000Y-73690000D03*
X75080000Y-75510000D03*
%TD*%
D10*
%TO.C,C85*%
X62970000Y-64375000D03*
X62970000Y-63005000D03*
%TD*%
D18*
%TO.C,CRP0*%
X78990000Y-54440000D03*
X80810000Y-54440000D03*
%TD*%
D11*
%TO.C,LED6*%
X40495000Y-47065000D03*
D12*
X42235000Y-47075000D03*
%TD*%
D13*
%TO.C,R43*%
X90825000Y-80160000D03*
X92195000Y-80160000D03*
%TD*%
D34*
%TO.C,C30*%
X119445000Y-42000000D03*
X112105000Y-42000000D03*
%TD*%
D13*
%TO.C,R139*%
X48085000Y-63560000D03*
X49455000Y-63560000D03*
%TD*%
D15*
%TO.C,R184*%
X71865000Y-43790000D03*
X70495000Y-43790000D03*
%TD*%
D16*
%TO.C,C14*%
X92400000Y-55100000D03*
X92400000Y-56920000D03*
%TD*%
D26*
%TO.C,D20*%
X36670000Y-99560000D03*
X35270000Y-99560000D03*
%TD*%
D15*
%TO.C,R218*%
X29385000Y-52240000D03*
X28015000Y-52240000D03*
%TD*%
D13*
%TO.C,R94*%
X79645000Y-90363334D03*
X81015000Y-90363334D03*
%TD*%
D22*
%TO.C,C125*%
X63870000Y-40025000D03*
X63870000Y-41395000D03*
%TD*%
D48*
%TO.C,C23*%
X101800000Y-57125000D03*
X101800000Y-60075000D03*
%TD*%
D13*
%TO.C,R124*%
X64180000Y-65160000D03*
X65550000Y-65160000D03*
%TD*%
D23*
%TO.C,C75*%
X58160000Y-93750000D03*
D24*
X58160000Y-91950000D03*
%TD*%
D18*
%TO.C,CRD2*%
X71910000Y-67400000D03*
X73730000Y-67400000D03*
%TD*%
D13*
%TO.C,R37*%
X90825000Y-81290000D03*
X92195000Y-81290000D03*
%TD*%
%TO.C,R83*%
X81895000Y-75786666D03*
X83265000Y-75786666D03*
%TD*%
D15*
%TO.C,C36*%
X88325000Y-85936662D03*
X86955000Y-85936662D03*
%TD*%
D22*
%TO.C,R199*%
X92970000Y-40520001D03*
X92970000Y-41890001D03*
%TD*%
%TO.C,R223*%
X27453570Y-75920000D03*
X27453570Y-77290000D03*
%TD*%
D15*
%TO.C,C31*%
X125695000Y-69510000D03*
X124325000Y-69510000D03*
%TD*%
D35*
%TO.C,U27*%
X36490000Y-74840000D03*
X35400000Y-75680000D03*
X35420000Y-76170000D03*
X35410000Y-76670000D03*
X35410000Y-77170000D03*
X35410000Y-77670000D03*
X35410000Y-78170000D03*
X36490000Y-79000000D03*
X37990000Y-79010000D03*
X39070000Y-78170000D03*
X39070000Y-77670000D03*
X39070000Y-77170000D03*
X39070000Y-76670000D03*
X39070000Y-76170000D03*
X39070000Y-75670000D03*
X37990000Y-74840000D03*
%TD*%
D22*
%TO.C,R241*%
X71510000Y-86755000D03*
X71510000Y-88125000D03*
%TD*%
D15*
%TO.C,R131*%
X49495000Y-54780000D03*
X48125000Y-54780000D03*
%TD*%
D18*
%TO.C,CRP3*%
X78860000Y-104870000D03*
X80680000Y-104870000D03*
%TD*%
D15*
%TO.C,R81*%
X83265000Y-74626666D03*
X81895000Y-74626666D03*
%TD*%
D20*
%TO.C,U6*%
X83664998Y-94103334D03*
X82395000Y-94103334D03*
X81125000Y-94103334D03*
X79855000Y-94103334D03*
X79855000Y-99483334D03*
X81125000Y-99483334D03*
X82395000Y-99483334D03*
X83665000Y-99483334D03*
%TD*%
D22*
%TO.C,R156*%
X93094407Y-38050001D03*
X93094407Y-39420001D03*
%TD*%
D56*
%TO.C,U30*%
X38930000Y-58805000D03*
X38930000Y-58150000D03*
X38930000Y-57500000D03*
X38930000Y-56850000D03*
X32770000Y-56850000D03*
X32770000Y-57500000D03*
X32770000Y-58150000D03*
X32770000Y-58800000D03*
%TD*%
D11*
%TO.C,D5*%
X124125000Y-49850000D03*
D12*
X125865000Y-49860000D03*
%TD*%
D13*
%TO.C,R111*%
X64185000Y-49150000D03*
X65555000Y-49150000D03*
%TD*%
D34*
%TO.C,C29*%
X119445000Y-50333333D03*
X112105000Y-50333333D03*
%TD*%
D57*
%TO.C,U24*%
X26170000Y-61100000D03*
X26170000Y-58800000D03*
D58*
X19785000Y-58800000D03*
D57*
X26170000Y-56500000D03*
%TD*%
D13*
%TO.C,R98*%
X81895000Y-100783334D03*
X83265000Y-100783334D03*
%TD*%
D15*
%TO.C,R133*%
X49465000Y-57040000D03*
X48095000Y-57040000D03*
%TD*%
D13*
%TO.C,R222*%
X37525000Y-50730000D03*
X38895000Y-50730000D03*
%TD*%
%TO.C,R189*%
X36525000Y-60950000D03*
X37895000Y-60950000D03*
%TD*%
D11*
%TO.C,D11*%
X124195000Y-83330000D03*
D12*
X125935000Y-83340000D03*
%TD*%
D13*
%TO.C,R244*%
X40625000Y-27640000D03*
X41995000Y-27640000D03*
%TD*%
D15*
%TO.C,C6*%
X88125000Y-52890000D03*
X86755000Y-52890000D03*
%TD*%
D25*
%TO.C,C1*%
X96585000Y-45995000D03*
X94765000Y-45995000D03*
%TD*%
D20*
%TO.C,U1*%
X83664998Y-43413334D03*
X82395000Y-43413334D03*
X81125000Y-43413334D03*
X79855000Y-43413334D03*
X79855000Y-48793334D03*
X81125000Y-48793334D03*
X82395000Y-48793334D03*
X83665000Y-48793334D03*
%TD*%
D28*
%TO.C,CU16*%
X19575000Y-65410000D03*
X19575000Y-63590000D03*
%TD*%
D59*
%TO.C,CU18_0*%
X67000000Y-44160000D03*
X65100000Y-44160000D03*
%TD*%
D13*
%TO.C,R158*%
X60015000Y-69650000D03*
X61385000Y-69650000D03*
%TD*%
%TO.C,R99*%
X81895000Y-92683334D03*
X83265000Y-92683334D03*
%TD*%
%TO.C,R196*%
X37210000Y-73510000D03*
X38580000Y-73510000D03*
%TD*%
M02*
